<svg width="16" height="19" viewBox="0 0 16 19" fill="none" xmlns="http://www.w3.org/2000/svg">
<path fill-rule="evenodd" clip-rule="evenodd" d="M0.25474 1.72392C0.155513 0.532487 1.4904 -0.12625 2.40671 0.485876L2.70312 0.683886C7.22272 3.70313 11.4526 7.11045 15.3414 10.8647C16.3101 11.7999 15.4558 13.2759 14.247 13.1464L8.98066 12.5824C8.44447 12.525 7.95036 12.8132 7.74686 13.2623L5.61824 17.9593C5.10415 19.0937 3.41076 18.9882 3.07382 17.7643C1.65905 12.6252 0.725215 7.37299 0.283681 2.07142L0.25474 1.72392ZM1.77173 1.86561L1.77851 1.94692C2.20129 7.02331 3.08349 12.0539 4.41488 16.9807L6.38062 12.6431C6.86106 11.583 7.98447 10.9672 9.14039 11.091L13.9474 11.6058C10.2205 8.0473 6.17941 4.81008 1.86989 1.93117L1.77173 1.86561Z" fill="#B3B3B3"/>
</svg>
