<svg width="17" height="16" viewBox="0 0 17 16" fill="none" xmlns="http://www.w3.org/2000/svg">
<path fill-rule="evenodd" clip-rule="evenodd" d="M14.9564 2.37508H3.44594L2.46246 0.612245C2.35207 0.414376 2.14324 0.291748 1.91666 0.291748H0.666656C0.321478 0.291748 0.0416565 0.57157 0.0416565 0.916748C0.0416565 1.26193 0.321478 1.54175 0.666656 1.54175H1.54966L2.52023 3.28146L4.75863 8.23415L4.76092 8.2392L4.95808 8.67543L2.71071 11.0726C2.54912 11.245 2.49854 11.4937 2.57998 11.7155C2.66142 11.9373 2.86097 12.0942 3.09571 12.121L5.14415 12.3551C7.70638 12.648 10.2936 12.648 12.8559 12.3551L14.9043 12.121C15.2473 12.0818 15.4935 11.7721 15.4543 11.4291C15.4151 11.0862 15.1053 10.8399 14.7624 10.8791L12.7139 11.1132C10.246 11.3953 7.754 11.3953 5.28608 11.1132L4.47315 11.0203L6.12263 9.26088C6.13859 9.24386 6.15341 9.22619 6.16709 9.20795L6.79444 9.28958C7.67354 9.40396 8.56217 9.42639 9.44592 9.35649C11.5071 9.19347 13.4175 8.21265 14.7512 6.63264L15.2329 6.06196C15.2491 6.04279 15.2641 6.02267 15.2779 6.0017L16.1757 4.63349C16.8121 3.66369 16.1164 2.37508 14.9564 2.37508ZM6.21355 7.95346C6.07571 7.93552 5.95685 7.84796 5.89881 7.72178L5.8977 7.71934L4.04727 3.62508H14.9564C15.1221 3.62508 15.2215 3.80917 15.1306 3.94771L14.2535 5.28444L13.796 5.82635C12.6777 7.15124 11.0758 7.97368 9.34737 8.11038C8.55022 8.17343 7.74868 8.1532 6.95572 8.05002L6.21355 7.95346Z" fill="black"/>
<path d="M4.41666 13.4167C3.7263 13.4167 3.16666 13.9764 3.16666 14.6667C3.16666 15.3571 3.7263 15.9167 4.41666 15.9167C5.10701 15.9167 5.66666 15.3571 5.66666 14.6667C5.66666 13.9764 5.10701 13.4167 4.41666 13.4167Z" fill="black"/>
<path d="M12.3333 14.6667C12.3333 13.9764 12.893 13.4167 13.5833 13.4167C14.2737 13.4167 14.8333 13.9764 14.8333 14.6667C14.8333 15.3571 14.2737 15.9167 13.5833 15.9167C12.893 15.9167 12.3333 15.3571 12.3333 14.6667Z" fill="black"/>
</svg>
