<svg width="52" height="53" viewBox="0 0 52 53" fill="none" xmlns="http://www.w3.org/2000/svg">
<path d="M21.0847 38.0728C22.0352 38.0728 22.8057 37.3023 22.8057 36.3518V25.8106C22.8057 24.8601 22.0352 24.0896 21.0847 24.0896H20.2242C19.2737 24.0896 18.5032 24.8601 18.5032 25.8106V36.3518C18.5032 37.3023 19.2737 38.0728 20.2242 38.0728H21.0847Z" fill="#10BB87"/>
<path d="M27.1022 14.4089H9.46784C8.51735 14.4089 7.74683 15.1794 7.74683 16.1299V36.3518C7.74683 37.3023 8.51735 38.0728 9.46784 38.0728H9.94824C10.8987 38.0728 11.6693 37.3023 11.6693 36.3518V20.3235C11.6693 19.5289 12.3061 18.8335 13.1509 18.8335H24.4778C26.401 18.8335 27.7475 19.6221 28.5804 20.7432C29.3762 21.8144 29.6429 23.1029 29.6429 24.0896V36.3518C29.6429 37.3023 30.4134 38.0728 31.3639 38.0728H31.841C32.7915 38.0728 33.562 37.3023 33.562 36.3518V21.01C33.562 19.6386 33.4014 17.8935 31.89 16.3485C31.0412 15.4832 30.2706 15.0156 29.5335 14.7533C28.787 14.4876 28.01 14.4089 27.1022 14.4089Z" fill="#10BB87"/>
<path d="M42.5974 38.0728C43.5479 38.0728 44.3184 37.3023 44.3184 36.3518V16.1299C44.3184 15.1794 43.5479 14.4089 42.5974 14.4089H41.7369C40.7864 14.4089 40.0158 15.1794 40.0158 16.1299V36.3518C40.0158 37.3023 40.7864 38.0728 41.7369 38.0728H42.5974Z" fill="#10BB87"/>
</svg>
