<svg width="52" height="53" viewBox="0 0 52 53" fill="none" xmlns="http://www.w3.org/2000/svg">
<path d="M37.1183 39.5975L37.4998 39.5551C39.7061 39.31 41.5588 37.9058 42.4287 35.9537C42.6582 35.4388 42.8193 34.8858 42.9005 34.3058C43.6496 28.9553 43.6496 23.5265 42.9005 18.176C42.8193 17.596 42.6582 17.043 42.4287 16.5281C41.5593 14.5773 39.7085 13.1736 37.5039 12.9271L37.4998 12.9267L37.1183 12.8843C30.0937 12.1038 23.0043 12.1038 15.9797 12.8843L15.5982 12.9267C12.8098 13.2365 10.5864 15.3975 10.1974 18.176C9.44837 23.5265 9.44837 28.9553 10.1974 34.3058C10.5864 37.0843 12.8098 39.2453 15.5982 39.5551L15.9797 39.5975L16.336 36.3903L15.9545 36.348C14.6321 36.201 13.5777 35.1761 13.3932 33.8584C12.6857 28.8047 12.6857 23.6771 13.3932 18.6234C13.5777 17.3057 14.6321 16.2808 15.9545 16.1338L16.336 16.0914C23.1238 15.3372 29.9742 15.3372 36.7619 16.0914L37.1434 16.1338C37.9937 16.2283 38.7331 16.6857 39.2018 17.3505C39.4621 17.7197 39.6389 18.1529 39.7048 18.6234C40.4123 23.6771 40.4123 28.8047 39.7048 33.8584C39.6389 34.3289 39.4621 34.7621 39.2018 35.1313C38.7331 35.7961 37.9937 36.2535 37.1434 36.348L36.7619 36.3903L37.1183 39.5975Z" fill="#10BB87"/>
<path fill-rule="evenodd" clip-rule="evenodd" d="M26.5489 46.408C30.8067 46.408 34.2584 42.9563 34.2584 38.6984C34.2584 34.4406 30.8067 30.9889 26.5489 30.9889C22.291 30.9889 18.8393 34.4406 18.8393 38.6984C18.8393 42.9563 22.291 46.408 26.5489 46.408ZM26.5489 49.6349C32.5889 49.6349 37.4853 44.7385 37.4853 38.6984C37.4853 32.6584 32.5889 27.762 26.5489 27.762C20.5088 27.762 15.6124 32.6584 15.6124 38.6984C15.6124 44.7385 20.5088 49.6349 26.5489 49.6349Z" fill="#10BB87"/>
<path fill-rule="evenodd" clip-rule="evenodd" d="M26.549 40.5599C27.577 40.5599 28.4104 39.7265 28.4104 38.6984C28.4104 37.6704 27.577 36.837 26.549 36.837C25.5209 36.837 24.6875 37.6704 24.6875 38.6984C24.6875 39.7265 25.5209 40.5599 26.549 40.5599Z" fill="#10BB87"/>
</svg>
