<svg width="52" height="53" viewBox="0 0 52 53" fill="none" xmlns="http://www.w3.org/2000/svg">
<path d="M21.7301 4.46613C20.839 4.46613 20.1166 5.18849 20.1166 6.07958V7.69303H12.5872C11.6961 7.69303 10.9738 8.41539 10.9738 9.30648C10.9738 10.1976 11.6961 10.9199 12.5872 10.9199H39.4781C40.3691 10.9199 41.0915 10.1976 41.0915 9.30648C41.0915 8.41539 40.3691 7.69303 39.4781 7.69303H31.9486V6.07958C31.9486 5.18849 31.2262 4.46613 30.3352 4.46613H21.7301Z" fill="#10BB87"/>
<path fill-rule="evenodd" clip-rule="evenodd" d="M13.1066 16.6577C13.1974 15.8406 13.888 15.2225 14.7102 15.2225H37.3551C38.1772 15.2225 38.8679 15.8406 38.9587 16.6577L39.3892 20.5329C40.1698 27.5575 40.1698 34.6469 39.3892 41.6715L39.3469 42.053C39.037 44.8414 36.876 47.0648 34.0975 47.4538C28.747 48.2028 23.3182 48.2028 17.9677 47.4538C15.1893 47.0648 13.0282 44.8414 12.7184 42.053L12.676 41.6715C11.8955 34.6469 11.8955 27.5575 12.676 20.5329L13.1066 16.6577ZM16.1543 18.4494L15.8832 20.8893C15.129 27.677 15.129 34.5274 15.8832 41.3152L15.9256 41.6967C16.0725 43.0191 17.0974 44.0736 18.4151 44.258C23.4688 44.9656 28.5964 44.9656 33.6501 44.258C34.9679 44.0736 35.9928 43.0191 36.1397 41.6967L36.1821 41.3152C36.9363 34.5274 36.9363 27.677 36.1821 20.8893L35.911 18.4494H16.1543Z" fill="#10BB87"/>
</svg>
