<svg width="52" height="53" viewBox="0 0 52 53" fill="none" xmlns="http://www.w3.org/2000/svg">
<path fill-rule="evenodd" clip-rule="evenodd" d="M37.1183 39.5975L37.4998 39.5551C39.7061 39.31 41.5588 37.9058 42.4287 35.9537C42.6582 35.4388 42.8193 34.8858 42.9005 34.3058C43.6496 28.9553 43.6496 23.5265 42.9005 18.176C42.8193 17.596 42.6582 17.043 42.4287 16.5281C41.5593 14.5773 39.7085 13.1736 37.5039 12.9271L37.4998 12.9267L37.1183 12.8843C30.0937 12.1038 23.0043 12.1038 15.9797 12.8843L15.5982 12.9267C12.8098 13.2365 10.5864 15.3975 10.1974 18.176C9.44837 23.5265 9.44837 28.9553 10.1974 34.3058C10.5864 37.0843 12.8098 39.2453 15.5982 39.5551L15.9797 39.5975L19.0038 39.8517L19.0038 45.6C19.0038 46.4911 19.7262 47.2134 20.6172 47.2134C21.5083 47.2134 22.2307 46.4911 22.2307 45.6L22.2307 40.171C23.3026 40.2463 24.3793 40.2964 25.4576 40.3215L25.4576 43.4487C25.4576 44.3398 26.18 45.0622 27.071 45.0622C27.9621 45.0622 28.6845 44.3398 28.6845 43.4487L28.6845 40.3215C29.7628 40.2964 30.8395 40.2463 31.9114 40.171L31.9114 45.6C31.9114 46.4911 32.6338 47.2134 33.5248 47.2134C34.4159 47.2134 35.1383 46.4911 35.1383 45.6L35.1383 39.8517L37.1183 39.5975ZM36.7619 16.0914C29.9742 15.3372 23.1238 15.3372 16.336 16.0914L15.9545 16.1338C14.6321 16.2808 13.5777 17.3057 13.3932 18.6234C12.6857 23.6771 12.6857 28.8047 13.3932 33.8584C13.5777 35.1761 14.6321 36.201 15.9545 36.348L16.336 36.3903C21.1092 36.9238 31.9888 36.9238 36.7619 36.3904L37.1434 36.348C37.9937 36.2535 38.7331 35.7961 39.2018 35.1313C39.4621 34.7621 39.6389 34.3289 39.7048 33.8584C40.4123 28.8047 40.4123 23.6771 39.7048 18.6234C39.6389 18.1529 39.4621 17.7197 39.2018 17.3505C38.7331 16.6857 37.9937 16.2283 37.1434 16.1338L36.7619 16.0914Z" fill="#10BB87"/>
</svg>
