<svg width="52" height="53" viewBox="0 0 52 53" fill="none" xmlns="http://www.w3.org/2000/svg">
<path fill-rule="evenodd" clip-rule="evenodd" d="M40.5542 23.0141L40.5402 23.5365L40.5542 24.0897L40.5409 24.613L40.5542 25.1654L40.5415 25.6922L40.5541 26.241L40.2048 41.5215C40.1219 45.147 37.3644 48.1494 33.7591 48.5398C28.6231 49.096 23.4421 49.096 18.3061 48.5398C14.7007 48.1494 11.9433 45.147 11.8604 41.5215L11.5111 26.241L11.5237 25.6886L11.5112 25.1654L11.5244 24.6152L11.511 24.0897L11.525 23.5389L11.5109 23.0141L11.8637 9.89582C11.8687 9.71279 11.8815 9.53167 11.902 9.35278L11.91 9.27714L11.9164 9.21618C12.0898 7.44332 13.0723 5.89707 14.504 4.96916C14.6108 4.89813 14.7201 4.83047 14.8318 4.76637C14.941 4.70172 15.0525 4.6404 15.1662 4.58257C15.8688 4.21176 16.6529 3.97143 17.4876 3.89459C23.1722 3.37132 28.8929 3.37132 34.5775 3.89459C35.4109 3.97131 36.1939 4.211 36.8956 4.58079C37.0092 4.63855 37.1208 4.69978 37.23 4.76434C37.3452 4.83037 37.4579 4.90016 37.568 4.97356C38.9921 5.89939 39.9702 7.43761 40.1473 9.20155L40.1641 9.36139C40.184 9.53748 40.1965 9.71573 40.2014 9.89583L40.5542 23.0141ZM36.9487 9.72075L37.2864 24.4928L37.0127 40.6545C36.9512 42.9421 35.189 44.8224 32.9103 45.0322C28.3348 45.4534 23.7303 45.4534 19.1549 45.0322C16.8761 44.8224 15.114 42.9421 15.0525 40.6545L14.7788 24.4941L15.1165 9.72075C15.1173 9.68896 15.1186 9.65732 15.1205 9.62582C15.2484 8.76041 15.75 8.01339 16.4611 7.55977C16.7305 7.41933 17.0294 7.3262 17.3473 7.29177C23.1206 6.66655 28.9446 6.66655 34.7179 7.29177C35.0357 7.32619 35.3345 7.41926 35.6038 7.5596C36.3152 8.01333 36.8169 8.76071 36.9448 9.62654C36.9466 9.6578 36.9479 9.68921 36.9487 9.72075ZM26.0326 42.0465C27.8148 42.0465 29.2595 40.6017 29.2595 38.8196C29.2595 37.0374 27.8148 35.5927 26.0326 35.5927C24.2505 35.5927 22.8057 37.0374 22.8057 38.8196C22.8057 40.6017 24.2505 42.0465 26.0326 42.0465Z" fill="#10BB87"/>
</svg>
