<svg width="52" height="53" viewBox="0 0 52 53" fill="none" xmlns="http://www.w3.org/2000/svg">
<path fill-rule="evenodd" clip-rule="evenodd" d="M15.8141 16.0224V15.7645C15.8141 11.1011 18.9713 7.02929 23.4878 5.86792C25.1572 5.43864 26.908 5.43864 28.5774 5.86792C33.0939 7.02929 36.2511 11.1011 36.2511 15.7645V16.0224H39.4804C40.7094 16.0224 41.7525 16.9237 41.9306 18.1397L42.401 21.3504C43.3273 27.6718 43.3273 34.0944 42.401 40.4158C41.9538 43.4686 39.4921 45.8286 36.4232 46.1469L35.0703 46.2872C29.0613 46.9103 23.0039 46.9103 16.9948 46.2872L15.642 46.1469C12.5731 45.8286 10.1114 43.4686 9.66414 40.4158C8.73793 34.0944 8.73793 27.6718 9.66414 21.3504L10.1346 18.1397C10.3127 16.9237 11.3558 16.0224 12.5847 16.0224H15.8141ZM24.2914 8.99315C25.4336 8.69943 26.6316 8.69943 27.7738 8.99315C30.864 9.78777 33.0242 12.5737 33.0242 15.7645V16.0224H19.041V15.7645C19.041 12.5737 21.2012 9.78777 24.2914 8.99315ZM15.8141 19.2493V24.0896C15.8141 24.9807 16.5364 25.7031 17.4275 25.7031C18.3186 25.7031 19.041 24.9807 19.041 24.0896V19.2493H33.0242V24.0896C33.0242 24.9807 33.7466 25.7031 34.6377 25.7031C35.5288 25.7031 36.2511 24.9807 36.2511 24.0896V19.2493H38.8318L39.2082 21.8182C40.089 27.8294 40.089 33.9368 39.2082 39.948C38.9749 41.5402 37.691 42.7712 36.0904 42.9372L34.7375 43.0775C28.9497 43.6777 23.1154 43.6777 17.3277 43.0775L15.9748 42.9372C14.3742 42.7712 13.0902 41.5402 12.857 39.948C11.9762 33.9368 11.9762 27.8294 12.857 21.8182L13.2334 19.2493H15.8141Z" fill="#10BB87"/>
</svg>
