<svg width="40" height="39" viewBox="0 0 40 39" fill="none" xmlns="http://www.w3.org/2000/svg">
<path fill-rule="evenodd" clip-rule="evenodd" d="M31.1703 0.625C30.7984 0.253113 30.294 0.0441895 29.7681 0.0441895C29.2421 0.0441895 28.7377 0.253113 28.3659 0.625L4.06105 24.9298C3.81191 25.1789 3.63366 25.49 3.54461 25.8309L0.900597 35.9533C0.722681 36.6344 0.919235 37.3588 1.41704 37.8566C1.91484 38.3544 2.63925 38.551 3.32039 38.3731L13.4428 35.7291C13.7837 35.64 14.0947 35.4618 14.3439 35.2126L38.6487 10.9078C39.4231 10.1334 39.4231 8.87782 38.6487 8.1034L31.1703 0.625ZM7.24591 27.3538L29.7681 4.8316L34.4421 9.5056L11.9199 32.0278L5.5934 33.6803L7.24591 27.3538Z" fill="#10BB87"/>
</svg>
