<svg width="52" height="53" viewBox="0 0 52 53" fill="none" xmlns="http://www.w3.org/2000/svg">
<path fill-rule="evenodd" clip-rule="evenodd" d="M17.9929 44.2127C16.61 43.7877 15.6507 42.5297 15.6069 41.0835L15.4359 14.1316H34.4785L34.3075 41.0835C34.2637 42.5297 33.3045 43.7877 31.9215 44.2127C27.3834 45.6075 22.531 45.6075 17.9929 44.2127ZM18.8324 40.9858L18.6891 36.2549C20.5866 37.1643 22.7124 37.6737 24.9572 37.6737C27.202 37.6737 29.3278 37.1643 31.2254 36.2549L31.0821 40.9858C31.0801 41.0516 31.0364 41.1089 30.9735 41.1282C27.0531 42.3332 22.8613 42.3332 18.941 41.1282C18.878 41.1089 18.8344 41.0516 18.8324 40.9858ZM18.8324 33.4322L18.6891 17.5269L31.2254 17.5268L31.0821 33.4322C31.0801 33.498 31.0364 33.5553 30.9735 33.5746C27.0531 34.7796 22.8613 34.7796 18.941 33.5746C18.878 33.5553 18.8344 33.498 18.8324 33.4322Z" fill="#10BB87"/>
<path d="M19.0415 8.83632C19.0415 7.94524 19.7639 7.22287 20.655 7.22287H29.26C30.1511 7.22287 30.8735 7.94526 30.8735 8.83634V12.0632H19.0415V8.83632Z" fill="#10BB87"/>
</svg>
