<svg width="38" height="38" viewBox="0 0 38 38" fill="none" xmlns="http://www.w3.org/2000/svg">
<path d="M8.30125 8.33828C11.0377 5.59237 14.8193 3.89587 19 3.89587C27.3418 3.89587 34.1041 10.6582 34.1041 19C34.1041 27.3418 27.3418 34.1042 19 34.1042C10.6582 34.1042 3.89581 27.3418 3.89581 19C3.89581 18.1371 3.19626 17.4375 2.33331 17.4375C1.47037 17.4375 0.770813 18.1371 0.770813 19C0.770813 29.0677 8.93229 37.2292 19 37.2292C29.0677 37.2292 37.2291 29.0677 37.2291 19C37.2291 8.93235 29.0677 0.770874 19 0.770874C13.9552 0.770874 9.3866 2.82217 6.08775 6.13237C6.03473 6.18558 5.98634 6.24164 5.94258 6.30007L3.32264 3.68014C3.03684 3.39433 2.61151 3.29966 2.23146 3.43726C1.85142 3.57485 1.58528 3.91987 1.54868 4.3224L0.812113 12.4247C0.784124 12.7325 0.894333 13.0369 1.11293 13.2555C1.33153 13.4741 1.63593 13.5843 1.94381 13.5564L10.0461 12.8198C10.4486 12.7832 10.7936 12.5171 10.9312 12.137C11.0688 11.757 10.9741 11.3316 10.6883 11.0458L8.12976 8.48726C8.18959 8.44245 8.24693 8.39279 8.30125 8.33828Z" fill="#10BB87"/>
<path d="M20.5625 8.58337C20.5625 7.72043 19.8629 7.02087 19 7.02087C18.137 7.02087 17.4375 7.72043 17.4375 8.58337V19C17.4375 19.5388 17.715 20.0395 18.1719 20.325L24.4219 24.2313C25.1536 24.6887 26.1176 24.4662 26.575 23.7344C27.0323 23.0026 26.8099 22.0387 26.0781 21.5813L20.5625 18.134V8.58337Z" fill="#10BB87"/>
</svg>
