<svg width="46" height="31" viewBox="0 0 46 31" fill="none" xmlns="http://www.w3.org/2000/svg">
<path fill-rule="evenodd" clip-rule="evenodd" d="M29.3132 12.8118C29.9234 13.422 29.9234 14.4113 29.3132 15.0215L22.0215 22.3132C21.4113 22.9234 20.422 22.9234 19.8118 22.3132L15.6452 18.1465C15.035 17.5363 15.035 16.547 15.6452 15.9368C16.2554 15.3266 17.2447 15.3266 17.8549 15.9368L20.9167 18.9986L27.1035 12.8118C27.7137 12.2016 28.703 12.2016 29.3132 12.8118Z" fill="#10BB87"/>
<path fill-rule="evenodd" clip-rule="evenodd" d="M24.9415 3.93396C21.7117 3.93396 18.9179 5.81381 17.6003 8.54605C17.246 9.28066 16.3863 9.61923 15.6263 9.32348C14.6039 8.92566 13.4904 8.70663 12.3221 8.70663C7.28778 8.70663 3.20667 12.7877 3.20667 17.8221C3.20667 22.8564 7.28778 26.9375 12.3221 26.9375H36.5901C40.0161 26.9375 42.7934 24.1602 42.7934 20.7342C42.7934 17.3082 40.0161 14.5309 36.5901 14.5309C36.0326 14.5309 35.4947 14.6041 34.9842 14.7404C34.4837 14.8741 33.9496 14.7511 33.5581 14.412C33.1665 14.0728 32.9685 13.5617 33.0293 13.0473C33.0668 12.7303 33.0862 12.4071 33.0862 12.0787C33.0862 7.58047 29.4396 3.93396 24.9415 3.93396ZM15.4584 5.98752C17.462 2.87441 20.9593 0.80896 24.9415 0.80896C30.9425 0.80896 35.8481 5.49947 36.1919 11.4143C36.324 11.4088 36.4567 11.406 36.5901 11.406C41.742 11.406 45.9184 15.5824 45.9184 20.7342C45.9184 25.8861 41.742 30.0625 36.5901 30.0625H12.3221C5.56189 30.0625 0.081665 24.5822 0.081665 17.8221C0.081665 11.0619 5.56189 5.58163 12.3221 5.58163C13.4047 5.58163 14.4562 5.72255 15.4584 5.98752Z" fill="#10BB87"/>
</svg>
