<svg width="20" height="20" viewBox="0 0 20 20" fill="none" xmlns="http://www.w3.org/2000/svg">
<path d="M13.125 10.8333C13.125 10.4882 12.8452 10.2083 12.5 10.2083H7.49999C7.15481 10.2083 6.87499 10.4882 6.87499 10.8333C6.87499 11.1785 7.15481 11.4583 7.49999 11.4583H12.5C12.8452 11.4583 13.125 11.1785 13.125 10.8333Z" fill="#487B6C"/>
<path d="M13.125 14.1667C13.125 13.8215 12.8452 13.5417 12.5 13.5417H7.49999C7.15481 13.5417 6.87499 13.8215 6.87499 14.1667C6.87499 14.5118 7.15481 14.7917 7.49999 14.7917H12.5C12.8452 14.7917 13.125 14.5118 13.125 14.1667Z" fill="#487B6C"/>
<path fill-rule="evenodd" clip-rule="evenodd" d="M5.83332 1.875C4.56767 1.875 3.54166 2.90101 3.54166 4.16667V15.8333C3.54166 17.099 4.56767 18.125 5.83332 18.125H14.1667C15.4323 18.125 16.4583 17.099 16.4583 15.8333V6.63971C16.4583 6.32241 16.3548 6.01375 16.1635 5.76058L13.6654 2.4542C13.3898 2.08941 12.959 1.875 12.5018 1.875H5.83332ZM4.79166 4.16667C4.79166 3.59137 5.25803 3.125 5.83332 3.125H11.875V6.7892C11.875 7.13438 12.1548 7.4142 12.5 7.4142H15.2083V15.8333C15.2083 16.4086 14.742 16.875 14.1667 16.875H5.83332C5.25803 16.875 4.79166 16.4086 4.79166 15.8333V4.16667Z" fill="#487B6C"/>
</svg>
