<svg width="18" height="18" viewBox="0 0 18 18" fill="none" xmlns="http://www.w3.org/2000/svg">
<path fill-rule="evenodd" clip-rule="evenodd" d="M2.34023 6.85641C4.12754 10.7483 7.30803 13.8425 11.2618 15.5191L11.2743 15.5244L12.0381 15.8648C13.0107 16.2982 14.1539 15.9904 14.7776 15.1273L16.0519 13.3636C16.1298 13.2558 16.1097 13.106 16.0063 13.0226L13.7815 11.2278C13.6709 11.1385 13.5083 11.1593 13.4237 11.2735L12.5578 12.4419C12.3475 12.7256 11.9678 12.8242 11.646 12.6786C8.68962 11.3407 6.31391 8.96497 4.97598 6.00857C4.83037 5.68681 4.92896 5.30705 5.21272 5.09677L6.38109 4.23091C6.49526 4.14631 6.51604 3.98368 6.42682 3.87308L4.63178 1.64804C4.54835 1.54462 4.3986 1.52454 4.29087 1.60231L2.51758 2.88247C1.64879 3.50966 1.34283 4.6625 1.78629 5.63795L2.33963 6.85511C2.33983 6.85555 2.34003 6.85598 2.34023 6.85641ZM10.6699 16.8974C6.37386 15.0738 2.9185 11.7108 0.976452 7.48101L0.975282 7.47846L0.42078 6.25874C-0.31832 4.63299 0.191608 2.71158 1.63959 1.66627L3.41288 0.386111C4.167 -0.158295 5.21523 -0.0176905 5.79923 0.706203L7.59427 2.93125C8.21883 3.70542 8.07336 4.84381 7.2742 5.43605L6.6047 5.93221C7.73561 8.1266 9.52799 9.91898 11.7224 11.0499L12.2185 10.3804C12.8108 9.58123 13.9492 9.43576 14.7234 10.0603L16.9481 11.8551C17.6722 12.4393 17.8126 13.4879 17.2678 14.242L15.9934 16.0058C14.954 17.4443 13.0487 17.9572 11.4276 17.235L10.6699 16.8974Z" fill="black"/>
</svg>
