<svg width="251" height="198" viewBox="0 0 251 198" fill="none" xmlns="http://www.w3.org/2000/svg">
<path fill-rule="evenodd" clip-rule="evenodd" d="M87.1939 170.892C90.6196 178.351 96.7155 184.282 104.294 187.495L104.317 187.505L105.781 188.158C107.646 188.988 109.837 188.398 111.032 186.744L113.475 183.364C113.624 183.157 113.585 182.87 113.387 182.71L109.123 179.27C108.911 179.099 108.599 179.139 108.437 179.358L106.778 181.597C106.375 182.141 105.647 182.33 105.03 182.051C99.3635 179.486 94.8101 174.933 92.2457 169.267C91.9666 168.65 92.1556 167.922 92.6995 167.519L94.9389 165.859C95.1577 165.697 95.1975 165.386 95.0265 165.174L91.586 160.909C91.4261 160.711 91.1391 160.672 90.9326 160.821L87.5338 163.275C85.8686 164.477 85.2822 166.687 86.1322 168.556L87.1927 170.889C87.1931 170.89 87.1935 170.891 87.1939 170.892ZM103.159 190.137C94.925 186.642 88.3022 180.196 84.58 172.089L84.5777 172.084L83.5149 169.746C82.0983 166.63 83.0757 162.947 85.851 160.944L89.2498 158.49C90.6952 157.447 92.7043 157.716 93.8236 159.104L97.2641 163.368C98.4612 164.852 98.1824 167.034 96.6506 168.169L95.3674 169.12C97.535 173.326 100.97 176.762 105.176 178.929L106.127 177.646C107.262 176.114 109.444 175.835 110.928 177.032L115.192 180.472C116.58 181.592 116.849 183.602 115.805 185.047L113.362 188.428C111.37 191.185 107.718 192.168 104.611 190.784L103.159 190.137Z" fill="black" fill-opacity="0.07"/>
<path d="M24.9167 180.75C23.8581 180.75 23 181.608 23 182.667C23 183.726 23.8581 184.584 24.9167 184.584C25.9752 184.584 26.8333 183.726 26.8333 182.667C26.8333 181.608 25.9752 180.75 24.9167 180.75Z" fill="black" fill-opacity="0.07"/>
<path d="M19.1667 184.584C18.1081 184.584 17.25 185.442 17.25 186.5C17.25 187.559 18.1081 188.417 19.1667 188.417C20.2252 188.417 21.0833 187.559 21.0833 186.5C21.0833 185.442 20.2252 184.584 19.1667 184.584Z" fill="black" fill-opacity="0.07"/>
<path fill-rule="evenodd" clip-rule="evenodd" d="M27.7815 158.23L27.7728 158.229H18.2271L18.2184 158.23H16.2917C15.4978 158.23 14.8542 158.873 14.8542 159.667C14.8542 160.461 15.4978 161.105 16.2917 161.105H16.7896V170.805C8.25715 174.838 7.02451 186.6 14.6935 192.288L15.2589 192.707C19.8564 196.117 26.1435 196.117 30.741 192.707L31.3064 192.288C38.9754 186.6 37.7428 174.838 29.2103 170.805V161.105H29.7083C30.5022 161.105 31.1458 160.461 31.1458 159.667C31.1458 158.873 30.5022 158.23 29.7083 158.23H27.7815ZM16.9716 190.398C20.5519 193.053 25.448 193.053 29.0283 190.398L29.5937 189.979C33.4568 187.114 34.3927 182.251 32.7454 178.355H13.2545C11.6073 182.251 12.5432 187.113 16.4062 189.979L16.9716 190.398ZM15.1356 175.48H30.8643C29.9975 174.569 28.9243 173.804 27.6528 173.256C26.8533 172.911 26.3353 172.124 26.3353 171.253V161.105H19.6646V171.253C19.6646 172.124 19.1467 172.911 18.3471 173.256C17.0756 173.804 16.0024 174.569 15.1356 175.48Z" fill="black" fill-opacity="0.07"/>
<path d="M99 96.6043C99.7939 96.6043 100.438 97.2479 100.438 98.0418V107.625C100.438 108.419 99.7939 109.063 99 109.063C98.2061 109.063 97.5625 108.419 97.5625 107.625L97.5625 98.0418C97.5625 97.2479 98.2061 96.6043 99 96.6043Z" fill="black" fill-opacity="0.07"/>
<path d="M99 93.2501C100.059 93.2501 100.917 92.392 100.917 91.3335C100.917 90.2749 100.059 89.4168 99 89.4168C97.9415 89.4168 97.0833 90.2749 97.0833 91.3335C97.0833 92.392 97.9415 93.2501 99 93.2501Z" fill="black" fill-opacity="0.07"/>
<path fill-rule="evenodd" clip-rule="evenodd" d="M90.0237 83.2236C95.9416 82.5622 102.058 82.5622 107.976 83.2236C111.477 83.6148 114.304 86.3722 114.715 89.8931C115.423 95.9438 115.423 102.056 114.715 108.107C114.304 111.628 111.477 114.385 107.976 114.777C102.058 115.438 95.9416 115.438 90.0237 114.777C86.5232 114.385 83.6963 111.628 83.2845 108.107C82.5768 102.056 82.5768 95.9438 83.2845 89.8931C83.6963 86.3722 86.5232 83.6148 90.0237 83.2236ZM107.657 86.0808C101.951 85.4431 96.0487 85.4431 90.3431 86.0808C88.1496 86.326 86.3938 88.0572 86.14 90.2271C85.4583 96.0559 85.4583 101.944 86.14 107.773C86.3938 109.943 88.1496 111.674 90.3431 111.919C96.0487 112.557 101.951 112.557 107.657 111.919C109.85 111.674 111.606 109.943 111.86 107.773C112.542 101.944 112.542 96.0559 111.86 90.2271C111.606 88.0572 109.85 86.326 107.657 86.0808Z" fill="black" fill-opacity="0.07"/>
<path fill-rule="evenodd" clip-rule="evenodd" d="M11.1939 94.8916C14.6196 102.351 20.7155 108.282 28.2935 111.495L28.3175 111.505L29.7814 112.158C31.6456 112.988 33.8368 112.398 35.0321 110.744L37.4746 107.364C37.6238 107.157 37.5854 106.87 37.3871 106.71L33.123 103.27C32.911 103.099 32.5993 103.139 32.4372 103.358L30.7776 105.597C30.3745 106.141 29.6467 106.33 29.03 106.051C23.3635 103.486 18.8101 98.933 16.2457 93.2666C15.9666 92.6499 16.1556 91.922 16.6995 91.519L18.9389 89.8594C19.1577 89.6973 19.1975 89.3856 19.0265 89.1736L15.586 84.9089C15.4261 84.7107 15.1391 84.6722 14.9326 84.8213L11.5338 87.2749C9.86861 88.477 9.28219 90.6866 10.1322 92.5563L11.1927 94.8892C11.1931 94.89 11.1935 94.8908 11.1939 94.8916ZM27.159 114.137C18.925 110.642 12.3022 104.196 8.57997 96.0888L8.57773 96.0839L7.51493 93.7461C6.09832 90.6301 7.07568 86.9474 9.85098 84.9439L13.2498 82.4902C14.6952 81.4468 16.7043 81.7163 17.8236 83.1037L21.2641 87.3684C22.4612 88.8522 22.1824 91.0342 20.6506 92.1693L19.3674 93.1202C21.535 97.3262 24.9704 100.762 29.1763 102.929L30.1273 101.646C31.2624 100.114 33.4444 99.8354 34.9282 101.032L39.1923 104.472C40.5802 105.592 40.8493 107.602 39.805 109.047L37.3624 112.428C35.3704 115.185 31.7184 116.168 28.6114 114.784L27.159 114.137Z" fill="black" fill-opacity="0.07"/>
<path d="M176.917 28.7504C175.858 28.7504 175 29.6085 175 30.667C175 31.7256 175.858 32.5837 176.917 32.5837C177.975 32.5837 178.833 31.7256 178.833 30.667C178.833 29.6085 177.975 28.7504 176.917 28.7504Z" fill="black" fill-opacity="0.07"/>
<path d="M171.167 32.5837C170.108 32.5837 169.25 33.4418 169.25 34.5004C169.25 35.5589 170.108 36.417 171.167 36.417C172.225 36.417 173.083 35.5589 173.083 34.5004C173.083 33.4418 172.225 32.5837 171.167 32.5837Z" fill="black" fill-opacity="0.07"/>
<path fill-rule="evenodd" clip-rule="evenodd" d="M179.782 6.22952L179.773 6.22949H170.227L170.218 6.22952H168.292C167.498 6.22952 166.854 6.87311 166.854 7.66702C166.854 8.46093 167.498 9.10452 168.292 9.10452H168.79V18.805C160.257 22.8384 159.025 34.5999 166.694 40.2878L167.259 40.7071C171.856 44.1169 178.144 44.1169 182.741 40.7071L183.306 40.2878C190.975 34.5999 189.743 22.8384 181.21 18.805V9.10452H181.708C182.502 9.10452 183.146 8.46093 183.146 7.66702C183.146 6.87311 182.502 6.22952 181.708 6.22952H179.782ZM168.972 38.3979C172.552 41.0533 177.448 41.0533 181.028 38.3979L181.594 37.9786C185.457 35.1135 186.393 30.2513 184.745 26.3545H165.255C163.607 30.2513 164.543 35.1135 168.406 37.9786L168.972 38.3979ZM167.136 23.4795H182.864C181.998 22.5687 180.924 21.8038 179.653 21.2557C178.853 20.9109 178.335 20.1236 178.335 19.2529V9.10452H171.665V19.2529C171.665 20.1236 171.147 20.9109 170.347 21.2557C169.076 21.8038 168.002 22.5687 167.136 23.4795Z" fill="black" fill-opacity="0.07"/>
<path d="M252.917 104.75C251.858 104.75 251 105.608 251 106.667C251 107.726 251.858 108.584 252.917 108.584C253.975 108.584 254.833 107.726 254.833 106.667C254.833 105.608 253.975 104.75 252.917 104.75Z" fill="black" fill-opacity="0.07"/>
<path d="M247.167 108.584C246.108 108.584 245.25 109.442 245.25 110.5C245.25 111.559 246.108 112.417 247.167 112.417C248.225 112.417 249.083 111.559 249.083 110.5C249.083 109.442 248.225 108.584 247.167 108.584Z" fill="black" fill-opacity="0.07"/>
<path fill-rule="evenodd" clip-rule="evenodd" d="M255.782 82.2295L255.773 82.2295H246.227L246.218 82.2295H244.292C243.498 82.2295 242.854 82.8731 242.854 83.667C242.854 84.4609 243.498 85.1045 244.292 85.1045H244.79V94.805C236.257 98.8384 235.025 110.6 242.694 116.288L243.259 116.707C247.856 120.117 254.144 120.117 258.741 116.707L259.306 116.288C266.975 110.6 265.743 98.8384 257.21 94.805V85.1045H257.708C258.502 85.1045 259.146 84.4609 259.146 83.667C259.146 82.8731 258.502 82.2295 257.708 82.2295H255.782ZM244.972 114.398C248.552 117.053 253.448 117.053 257.028 114.398L257.594 113.979C261.457 111.114 262.393 106.251 260.745 102.355H241.255C239.607 106.251 240.543 111.113 244.406 113.979L244.972 114.398ZM243.136 99.4795H258.864C257.998 98.5687 256.924 97.8038 255.653 97.2557C254.853 96.9109 254.335 96.1236 254.335 95.2529V85.1045H247.665V95.2529C247.665 96.1236 247.147 96.9109 246.347 97.2557C245.076 97.8038 244.002 98.5687 243.136 99.4795Z" fill="black" fill-opacity="0.07"/>
<path d="M251 172.604C251.794 172.604 252.438 173.248 252.438 174.042V183.625C252.438 184.419 251.794 185.063 251 185.063C250.206 185.063 249.563 184.419 249.563 183.625L249.563 174.042C249.563 173.248 250.206 172.604 251 172.604Z" fill="black" fill-opacity="0.07"/>
<path d="M251 169.25C252.059 169.25 252.917 168.392 252.917 167.333C252.917 166.275 252.059 165.417 251 165.417C249.941 165.417 249.083 166.275 249.083 167.333C249.083 168.392 249.941 169.25 251 169.25Z" fill="black" fill-opacity="0.07"/>
<path fill-rule="evenodd" clip-rule="evenodd" d="M242.024 159.224C247.942 158.562 254.058 158.562 259.976 159.224C263.477 159.615 266.304 162.372 266.715 165.893C267.423 171.944 267.423 178.056 266.715 184.107C266.304 187.628 263.477 190.385 259.976 190.777C254.058 191.438 247.942 191.438 242.024 190.777C238.523 190.385 235.696 187.628 235.284 184.107C234.577 178.056 234.577 171.944 235.284 165.893C235.696 162.372 238.523 159.615 242.024 159.224ZM259.657 162.081C253.951 161.443 248.049 161.443 242.343 162.081C240.15 162.326 238.394 164.057 238.14 166.227C237.458 172.056 237.458 177.944 238.14 183.773C238.394 185.943 240.15 187.674 242.343 187.919C248.049 188.557 253.951 188.557 259.657 187.919C261.85 187.674 263.606 185.943 263.86 183.773C264.542 177.944 264.542 172.056 263.86 166.227C263.606 164.057 261.85 162.326 259.657 162.081Z" fill="black" fill-opacity="0.07"/>
<path d="M167.333 170.208C166.01 170.208 164.937 171.281 164.937 172.604C164.937 173.927 166.01 175 167.333 175C168.657 175 169.729 173.927 169.729 172.604C169.729 171.281 168.657 170.208 167.333 170.208Z" fill="black" fill-opacity="0.07"/>
<path d="M175 170.208C173.677 170.208 172.604 171.281 172.604 172.604C172.604 173.927 173.677 175 175 175C176.323 175 177.396 173.927 177.396 172.604C177.396 171.281 176.323 170.208 175 170.208Z" fill="black" fill-opacity="0.07"/>
<path d="M180.271 172.604C180.271 171.281 181.343 170.208 182.667 170.208C183.99 170.208 185.062 171.281 185.062 172.604C185.062 173.927 183.99 175 182.667 175C181.343 175 180.271 173.927 180.271 172.604Z" fill="black" fill-opacity="0.07"/>
<path fill-rule="evenodd" clip-rule="evenodd" d="M182.86 160.803C177.696 160.363 172.505 160.337 167.337 160.727L166.967 160.754C162.038 161.126 158.229 165.233 158.229 170.175V186.5C158.229 187.006 158.495 187.474 158.929 187.734C159.363 187.993 159.902 188.006 160.347 187.766L167.843 183.738C168.191 183.551 168.581 183.453 168.977 183.453H186.182C188.352 183.453 190.211 181.901 190.6 179.767C191.388 175.44 191.451 171.013 190.784 166.666L190.588 165.385C190.231 163.053 188.323 161.269 185.972 161.068L182.86 160.803ZM167.553 163.593C172.568 163.215 177.605 163.24 182.615 163.668L185.728 163.933C186.756 164.021 187.59 164.801 187.746 165.821L187.943 167.102C188.56 171.133 188.503 175.239 187.772 179.251C187.632 180.019 186.963 180.578 186.182 180.578H168.977C168.106 180.578 167.249 180.793 166.482 181.206L161.104 184.096V170.175C161.104 166.737 163.754 163.88 167.183 163.621L167.553 163.593Z" fill="black" fill-opacity="0.07"/>
<path fill-rule="evenodd" clip-rule="evenodd" d="M163.194 94.8916C166.62 102.351 172.715 108.282 180.294 111.495L180.317 111.505L181.781 112.158C183.646 112.988 185.837 112.398 187.032 110.744L189.475 107.364C189.624 107.157 189.585 106.87 189.387 106.71L185.123 103.27C184.911 103.099 184.599 103.139 184.437 103.358L182.778 105.597C182.375 106.141 181.647 106.33 181.03 106.051C175.364 103.486 170.81 98.933 168.246 93.2666C167.967 92.6499 168.156 91.922 168.699 91.519L170.939 89.8594C171.158 89.6973 171.198 89.3856 171.027 89.1736L167.586 84.9089C167.426 84.7107 167.139 84.6722 166.933 84.8213L163.534 87.2749C161.869 88.477 161.282 90.6866 162.132 92.5563L163.193 94.8892C163.193 94.89 163.193 94.8908 163.194 94.8916ZM179.159 114.137C170.925 110.642 164.302 104.196 160.58 96.0888L160.578 96.0839L159.515 93.7461C158.098 90.6301 159.076 86.9474 161.851 84.9439L165.25 82.4902C166.695 81.4468 168.704 81.7163 169.824 83.1037L173.264 87.3684C174.461 88.8522 174.182 91.0342 172.651 92.1693L171.367 93.1202C173.535 97.3262 176.97 100.762 181.176 102.929L182.127 101.646C183.262 100.114 185.444 99.8354 186.928 101.032L191.192 104.472C192.58 105.592 192.849 107.602 191.805 109.047L189.362 112.428C187.37 115.185 183.718 116.168 180.611 114.784L179.159 114.137Z" fill="black" fill-opacity="0.07"/>
<path d="M243.333 18.2085C242.01 18.2085 240.937 19.2811 240.937 20.6043C240.937 21.9275 242.01 23.0001 243.333 23.0001C244.657 23.0001 245.729 21.9275 245.729 20.6043C245.729 19.2811 244.657 18.2085 243.333 18.2085Z" fill="black" fill-opacity="0.07"/>
<path d="M251 18.2085C249.677 18.2085 248.604 19.2811 248.604 20.6043C248.604 21.9275 249.677 23.0001 251 23.0001C252.323 23.0001 253.396 21.9275 253.396 20.6043C253.396 19.2811 252.323 18.2085 251 18.2085Z" fill="black" fill-opacity="0.07"/>
<path d="M256.271 20.6043C256.271 19.2811 257.343 18.2085 258.667 18.2085C259.99 18.2085 261.062 19.2811 261.062 20.6043C261.062 21.9275 259.99 23.0001 258.667 23.0001C257.343 23.0001 256.271 21.9275 256.271 20.6043Z" fill="black" fill-opacity="0.07"/>
<path fill-rule="evenodd" clip-rule="evenodd" d="M258.86 8.80298C253.696 8.36261 248.505 8.33705 243.337 8.72656L242.967 8.75447C238.038 9.12592 234.229 13.233 234.229 18.1753V34.5001C234.229 35.0059 234.495 35.4744 234.929 35.734C235.363 35.9935 235.902 36.0058 236.347 35.7664L243.843 31.7381C244.191 31.5507 244.581 31.4526 244.977 31.4526H262.182C264.352 31.4526 266.211 29.9013 266.6 27.7666C267.388 23.4402 267.451 19.0128 266.784 14.666L266.588 13.385C266.231 11.0529 264.323 9.26886 261.972 9.06839L258.86 8.80298ZM243.553 11.5934C248.568 11.2155 253.605 11.2403 258.615 11.6676L261.728 11.933C262.756 12.0207 263.59 12.8008 263.746 13.8206L263.943 15.1016C264.56 19.1329 264.503 23.2389 263.772 27.2513C263.632 28.0194 262.963 28.5776 262.182 28.5776H244.977C244.106 28.5776 243.249 28.7934 242.482 29.2056L237.104 32.0957V18.1753C237.104 14.737 239.754 11.8798 243.183 11.6213L243.553 11.5934Z" fill="black" fill-opacity="0.07"/>
<path fill-rule="evenodd" clip-rule="evenodd" d="M6.75506 16.9756C7.43418 8.73655 14.3191 2.39575 22.5861 2.39575H23.414C31.6809 2.39575 38.5659 8.73655 39.245 16.9756C39.6098 21.4014 38.2427 25.7961 35.4316 29.234L26.2449 40.4691C24.5678 42.5201 21.4322 42.5201 19.7552 40.4691L10.5685 29.234C7.75736 25.7961 6.39024 21.4014 6.75506 16.9756ZM22.5861 5.27075C15.8154 5.27075 10.1766 10.4639 9.62034 17.2117C9.31671 20.8953 10.4545 24.5529 12.7941 27.4141L21.9808 38.6492C22.5076 39.2934 23.4925 39.2934 24.0192 38.6492L33.2059 27.4141C35.5455 24.5529 36.6833 20.8953 36.3797 17.2117C35.8235 10.4639 30.1847 5.27075 23.414 5.27075H22.5861Z" fill="black" fill-opacity="0.07"/>
<path d="M24.9167 30.6666C24.9167 31.7251 24.0586 32.5833 23 32.5833C21.9415 32.5833 21.0834 31.7251 21.0834 30.6666C21.0834 29.608 21.9415 28.7499 23 28.7499C24.0586 28.7499 24.9167 29.608 24.9167 30.6666Z" fill="black" fill-opacity="0.07"/>
<path fill-rule="evenodd" clip-rule="evenodd" d="M23 14.8541C21.1855 14.8541 19.6459 16.3786 19.6459 18.3452C19.6459 19.1391 19.0023 19.7827 18.2084 19.7827C17.4145 19.7827 16.7709 19.1391 16.7709 18.3452C16.7709 14.8677 19.5218 11.9791 23 11.9791C26.4782 11.9791 29.2292 14.8677 29.2292 18.3452C29.2292 21.0879 27.5268 23.45 25.1046 24.3384C24.866 24.4259 24.672 24.5597 24.5549 24.6901C24.4453 24.8121 24.4375 24.8866 24.4375 24.9166C24.4375 25.7105 23.7939 26.3541 23 26.3541C22.2061 26.3541 21.5625 25.7105 21.5625 24.9166C21.5625 23.1463 22.9875 22.0526 24.1147 21.6392C25.4017 21.1671 26.3542 19.8848 26.3542 18.3452C26.3542 16.3786 24.8146 14.8541 23 14.8541Z" fill="black" fill-opacity="0.07"/>
<path fill-rule="evenodd" clip-rule="evenodd" d="M84.8011 29.3331C80.4927 18.7579 88.2726 7.1875 99.6918 7.1875H100.308C108.848 7.1875 115.771 14.1105 115.771 22.6505C115.771 32.1587 108.063 39.8667 98.5546 39.8667H83.5658C82.9558 39.8667 82.4122 39.4817 82.2097 38.9063C82.0073 38.3308 82.19 37.6903 82.6656 37.3084L86.4443 34.2737C86.6096 34.141 86.668 33.9156 86.5881 33.7193L84.8011 29.3331ZM99.6918 10.0625C90.3144 10.0625 83.9255 19.5641 87.4636 28.2484L89.2506 32.6346C89.8102 34.0083 89.4011 35.5865 88.2446 36.5153L87.6514 36.9917H98.5546C106.475 36.9917 112.896 30.5709 112.896 22.6505C112.896 15.6983 107.26 10.0625 100.308 10.0625H99.6918Z" fill="black" fill-opacity="0.07"/>
</svg>
