<svg width="16" height="16" viewBox="0 0 16 16" fill="none" xmlns="http://www.w3.org/2000/svg">
<path fill-rule="evenodd" clip-rule="evenodd" d="M2.34957 5.90449C2.58579 3.03875 4.98056 0.833252 7.85602 0.833252H8.14398C11.0194 0.833252 13.4142 3.03875 13.6504 5.90449C13.7773 7.44392 13.3018 8.97251 12.324 10.1683L9.12865 14.0762C8.54531 14.7896 7.45468 14.7896 6.87135 14.0762L3.67597 10.1683C2.6982 8.97252 2.22268 7.44392 2.34957 5.90449ZM7.85602 1.83325C5.50099 1.83325 3.53966 3.63957 3.34619 5.98664C3.24058 7.26786 3.63635 8.54007 4.45012 9.5353L7.64549 13.4432C7.82872 13.6672 8.17128 13.6672 8.3545 13.4432L11.5499 9.5353C12.3636 8.54007 12.7594 7.26786 12.6538 5.98664C12.4603 3.63957 10.499 1.83325 8.14398 1.83325H7.85602Z" fill="black"/>
<path d="M8.66666 10.6666C8.66666 11.0348 8.36819 11.3333 8 11.3333C7.63181 11.3333 7.33333 11.0348 7.33333 10.6666C7.33333 10.2984 7.63181 9.99992 8 9.99992C8.36819 9.99992 8.66666 10.2984 8.66666 10.6666Z" fill="black"/>
<path fill-rule="evenodd" clip-rule="evenodd" d="M8 5.16659C7.36885 5.16659 6.83333 5.69687 6.83333 6.38087C6.83333 6.65701 6.60947 6.88087 6.33333 6.88087C6.05719 6.88087 5.83333 6.65701 5.83333 6.38087C5.83333 5.17133 6.79019 4.16659 8 4.16659C9.2098 4.16659 10.1667 5.17133 10.1667 6.38087C10.1667 7.33486 9.57451 8.15648 8.73202 8.46546C8.64904 8.4959 8.58155 8.54246 8.54081 8.58781C8.5027 8.63025 8.5 8.65616 8.5 8.66659C8.5 8.94273 8.27614 9.16659 8 9.16659C7.72385 9.16659 7.5 8.94273 7.5 8.66659C7.5 8.05085 7.99563 7.6704 8.3877 7.52661C8.83537 7.36243 9.16666 6.91639 9.16666 6.38087C9.16666 5.69687 8.63114 5.16659 8 5.16659Z" fill="black"/>
</svg>
