<svg width="128" height="54" viewBox="0 0 128 54" fill="none" xmlns="http://www.w3.org/2000/svg">
<g clip-path="url(#clip0_1_823)">
<path d="M28.3125 54.1302H99.2548L63.9719 18.8076L28.3125 54.1302Z" fill="black" fill-opacity="0.07"/>
<path d="M26.957 52.3935L32.484 46.9955L30.643 45.1052L27.1715 48.4971L21.0561 42.2198L19 44.228L26.957 52.3935Z" fill="#487B6C"/>
<path d="M33.6972 45.7657L39.3605 40.2329L37.8052 38.6379L34.2093 42.1498L32.4825 40.3775L35.3641 37.5629L33.7366 35.8941L30.8551 38.7071L29.3756 37.1891L32.8533 33.7916L31.299 32.1971L25.6537 37.7115L33.6972 45.7657Z" fill="#487B6C"/>
<path d="M52.2335 19.5366C49.9496 17.1926 45.9875 17.4731 44.0794 19.3372C42.1708 21.2013 41.1968 24.9182 43.892 27.6841C46.8524 30.7217 50.3746 29.6184 52.2832 27.7554C55.0972 25.0069 54.0955 21.4474 52.2335 19.5366ZM50.5549 26.1502C49.2915 27.3842 47.7471 27.0494 45.9824 25.2381C44.4993 23.7165 44.5884 22.1877 45.6669 21.1341C46.4084 20.4097 47.9145 19.7617 49.7063 21.6006C51.7506 23.6985 51.8182 24.9161 50.5549 26.1502Z" fill="#487B6C"/>
<path d="M58.6035 21.4833L60.6929 19.4418L57.5496 16.2165L55.6682 8.3797L53.2731 10.7196L54.5191 15.1655L50.3096 13.6136L48.0513 15.8192L55.2278 18.1263L58.6035 21.4833Z" fill="#487B6C"/>
<path d="M47.4634 32.3767C47.4634 32.3767 42.3783 30.6398 42.1366 30.6818C42.0582 30.6946 43.2289 27.576 40.5988 26.1938C40.5988 26.1938 38.6472 25.1362 36.694 26.9126L32.5312 31.0197L40.5563 39.1108L42.6794 37.037L38.3368 32.5818L45.3567 34.4346L47.4634 32.3767ZM39.5874 31.2658C38.4075 32.4162 38.2482 32.507 38.2482 32.507C38.2482 32.507 36.3985 30.609 36.333 30.5419C36.2674 30.4747 37.6557 29.2832 37.8744 29.0694C37.9671 28.9787 38.8315 28.4142 39.5469 29.1479C39.5469 29.1479 40.7667 30.1133 39.5874 31.2658Z" fill="#487B6C"/>
<path d="M57.9552 9.92394L56.0983 8.04959L64.2048 0L66.858 2.67773L63.9375 8.43204L69.8917 5.73996L72.4445 8.3172L64.338 16.3668L62.3812 14.3919L66.6603 10.1434L60.8065 12.8021L59.5965 11.5804L62.3172 5.72561L57.9552 9.92394Z" fill="#487B6C"/>
<path d="M72.0307 24.1314L66.4099 18.4586L74.5169 10.409L80.1536 16.0987L78.5159 17.7249L74.9845 14.1608L73.6638 15.4717L76.4491 18.2832L74.7438 19.9761L71.9754 17.1815L70.2035 18.9405L73.7017 22.4713L72.0307 24.1314Z" fill="#487B6C"/>
<path d="M90.5651 26.6077L92.6539 28.7169L86.5195 34.8075L89.9511 38.2702L87.9785 40.2301L82.4581 34.6578L90.5651 26.6077Z" fill="#487B6C"/>
<path d="M89.4374 41.703L97.5444 33.6534L99.5836 35.7113L91.4766 43.7604L89.4374 41.703Z" fill="#487B6C"/>
<path d="M95.1734 47.4936L93.2664 45.5685L101.374 37.5194L104.143 40.3125L101.777 48.6702L107.143 43.3414L109 45.2158L100.894 53.2648L98.4723 50.8224L100.557 42.0484L95.1734 47.4936Z" fill="#487B6C"/>
<path d="M86.9014 22.9096L81.9776 17.9391L73.8537 25.9723L75.9425 28.0805L80.3717 23.6827L78.7775 30.9422L80.916 33.1011C80.916 33.1011 82.6018 27.9082 82.6536 27.6919C82.6536 27.6919 84.4802 28.6993 86.4846 26.9741C86.4846 26.9741 88.407 25.0987 86.9014 22.9096ZM83.8949 25.2638C83.8949 25.2638 82.8599 25.9595 81.9479 25.0393L80.5232 23.533C80.5232 23.533 82.2444 21.8237 82.4615 21.6079C82.4615 21.6079 83.7879 22.947 83.9538 23.1141C84.1192 23.2813 85.1649 24.0687 83.8949 25.2638Z" fill="#487B6C"/>
</g>
<defs>
<clipPath id="clip0_1_823">
<rect width="128" height="54" fill="white"/>
</clipPath>
</defs>
</svg>
