<svg width="16" height="16" viewBox="0 0 16 16" fill="none" xmlns="http://www.w3.org/2000/svg">
<path d="M9 6.50001C9 6.22387 8.77614 6.00001 8.5 6.00001H4.5C4.22386 6.00001 4 6.22387 4 6.50001C4 6.77615 4.22386 7.00001 4.5 7.00001H8.5C8.77614 7.00001 9 6.77615 9 6.50001Z" fill="black"/>
<path d="M8.33333 8.50001C8.33333 8.22387 8.10948 8.00001 7.83333 8.00001H4.5C4.22386 8.00001 4 8.22387 4 8.50001C4 8.77615 4.22386 9.00001 4.5 9.00001H7.83333C8.10948 9.00001 8.33333 8.77615 8.33333 8.50001Z" fill="black"/>
<path d="M8.5 10C8.77614 10 9 10.2239 9 10.5C9 10.7762 8.77614 11 8.5 11H4.5C4.22386 11 4 10.7762 4 10.5C4 10.2239 4.22386 10 4.5 10H8.5Z" fill="black"/>
<path fill-rule="evenodd" clip-rule="evenodd" d="M4 14.5H12.6667C13.6792 14.5 14.5 13.6792 14.5 12.6667V9.00002C14.5 8.72387 14.2761 8.50002 14 8.50002H11.8333V3.29547C11.8333 2.34654 10.7607 1.79456 9.98856 2.34612L9.87186 2.42947C9.35153 2.80114 8.64672 2.79989 8.12395 2.42648C7.25471 1.80559 6.07862 1.80559 5.20938 2.42648C4.68661 2.79989 3.9818 2.80114 3.46148 2.42947L3.34478 2.34612C2.5726 1.79456 1.5 2.34654 1.5 3.29547V12C1.5 13.3807 2.61929 14.5 4 14.5ZM5.79062 3.24022C6.31217 2.86768 7.02117 2.86768 7.54271 3.24022C8.41074 3.86023 9.58263 3.86497 10.4531 3.24321L10.5698 3.15985C10.6801 3.08106 10.8333 3.15991 10.8333 3.29547V12.6667C10.8333 12.9668 10.9054 13.25 11.0332 13.5H4C3.17157 13.5 2.5 12.8284 2.5 12V3.29547C2.5 3.15991 2.65323 3.08106 2.76354 3.15985L2.88024 3.24321C3.7507 3.86497 4.9226 3.86023 5.79062 3.24022ZM11.8333 12.6667V9.50002H13.5V12.6667C13.5 13.1269 13.1269 13.5 12.6667 13.5C12.2064 13.5 11.8333 13.1269 11.8333 12.6667Z" fill="black"/>
</svg>
