<svg width="502" height="314" viewBox="0 0 502 314" fill="none" xmlns="http://www.w3.org/2000/svg">
<path d="M23 241.396C23.7939 241.396 24.4375 242.039 24.4375 242.833V244.75C24.4375 245.544 23.7939 246.188 23 246.188C22.2061 246.188 21.5625 245.544 21.5625 244.75V242.833C21.5625 242.039 22.2061 241.396 23 241.396Z" fill="black" fill-opacity="0.07"/>
<path fill-rule="evenodd" clip-rule="evenodd" d="M11.9792 262C11.9792 255.913 16.9134 250.979 23 250.979C29.0866 250.979 34.0208 255.913 34.0208 262C34.0208 268.087 29.0866 273.021 23 273.021C16.9134 273.021 11.9792 268.087 11.9792 262ZM23 253.854C18.5012 253.854 14.8542 257.501 14.8542 262C14.8542 266.499 18.5012 270.146 23 270.146C27.4988 270.146 31.1458 266.499 31.1458 262C31.1458 257.501 27.4988 253.854 23 253.854Z" fill="black" fill-opacity="0.07"/>
<path d="M10.4636 247.431C9.90224 246.869 8.99207 246.869 8.43069 247.431C7.86931 247.992 7.86931 248.902 8.43069 249.464L9.78598 250.819C10.3474 251.38 11.2575 251.38 11.8189 250.819C12.3803 250.258 12.3803 249.347 11.8189 248.786L10.4636 247.431Z" fill="black" fill-opacity="0.07"/>
<path d="M43.6042 262C43.6042 262.794 42.9606 263.438 42.1667 263.438H40.25C39.4561 263.438 38.8125 262.794 38.8125 262C38.8125 261.206 39.4561 260.563 40.25 260.563H42.1667C42.9606 260.563 43.6042 261.206 43.6042 262Z" fill="black" fill-opacity="0.07"/>
<path d="M37.5693 249.464C38.1307 248.902 38.1307 247.992 37.5693 247.431C37.0079 246.869 36.0978 246.869 35.5364 247.431L34.1811 248.786C33.6197 249.347 33.6197 250.258 34.1811 250.819C34.7425 251.38 35.6526 251.38 36.214 250.819L37.5693 249.464Z" fill="black" fill-opacity="0.07"/>
<path d="M23 277.813C23.7939 277.813 24.4375 278.456 24.4375 279.25V281.167C24.4375 281.961 23.7939 282.604 23 282.604C22.2061 282.604 21.5625 281.961 21.5625 281.167V279.25C21.5625 278.456 22.2061 277.813 23 277.813Z" fill="black" fill-opacity="0.07"/>
<path d="M36.2142 273.181C35.6528 272.62 34.7426 272.62 34.1812 273.181C33.6198 273.743 33.6198 274.653 34.1812 275.214L35.5365 276.569C36.0979 277.131 37.0081 277.131 37.5694 276.569C38.1308 276.008 38.1308 275.098 37.5694 274.536L36.2142 273.181Z" fill="black" fill-opacity="0.07"/>
<path d="M7.18751 262C7.18751 262.794 6.54392 263.438 5.75001 263.438H3.83334C3.03943 263.438 2.39584 262.794 2.39584 262C2.39584 261.206 3.03943 260.563 3.83334 260.563H5.75001C6.54392 260.563 7.18751 261.206 7.18751 262Z" fill="black" fill-opacity="0.07"/>
<path d="M11.8188 275.214C12.3802 274.653 12.3802 273.743 11.8188 273.181C11.2574 272.62 10.3472 272.62 9.78585 273.181L8.43056 274.536C7.86918 275.098 7.86918 276.008 8.43056 276.569C8.99194 277.131 9.90212 277.131 10.4635 276.569L11.8188 275.214Z" fill="black" fill-opacity="0.07"/>
<path fill-rule="evenodd" clip-rule="evenodd" d="M174.015 18.1385C166.8 18.6436 161.104 24.6565 161.104 32C161.104 39.6744 167.326 45.8958 175 45.8958C181.148 45.8958 186.365 41.9018 188.196 36.3674C186.787 36.9495 185.243 37.2708 183.625 37.2708C177.009 37.2708 171.646 31.9075 171.646 25.2916C171.646 22.6099 172.528 20.134 174.015 18.1385ZM158.229 32C158.229 22.7377 165.738 15.2291 175 15.2291C175.862 15.2291 176.709 15.2942 177.538 15.4201C178.111 15.5071 178.575 15.9297 178.716 16.4919C178.857 17.0542 178.646 17.646 178.182 17.9928C175.957 19.6554 174.521 22.3056 174.521 25.2916C174.521 30.3197 178.597 34.3958 183.625 34.3958C185.799 34.3958 187.791 33.6356 189.357 32.3654C189.807 32.0003 190.432 31.941 190.942 32.2148C191.453 32.4886 191.749 33.0421 191.694 33.6188C190.878 42.1222 183.716 48.7708 175 48.7708C165.738 48.7708 158.229 41.2622 158.229 32Z" fill="black" fill-opacity="0.07"/>
<path fill-rule="evenodd" clip-rule="evenodd" d="M326.015 18.1385C318.8 18.6436 313.104 24.6565 313.104 32C313.104 39.6744 319.326 45.8958 327 45.8958C333.148 45.8958 338.365 41.9018 340.196 36.3674C338.787 36.9495 337.243 37.2708 335.625 37.2708C329.009 37.2708 323.646 31.9075 323.646 25.2916C323.646 22.6099 324.528 20.134 326.015 18.1385ZM310.229 32C310.229 22.7377 317.738 15.2291 327 15.2291C327.862 15.2291 328.709 15.2942 329.538 15.4201C330.111 15.5071 330.575 15.9297 330.716 16.4919C330.857 17.0542 330.646 17.646 330.182 17.9928C327.957 19.6554 326.521 22.3056 326.521 25.2916C326.521 30.3197 330.597 34.3958 335.625 34.3958C337.799 34.3958 339.791 33.6356 341.357 32.3654C341.807 32.0003 342.432 31.941 342.942 32.2148C343.453 32.4886 343.749 33.0421 343.694 33.6188C342.878 42.1222 335.716 48.7708 327 48.7708C317.738 48.7708 310.229 41.2622 310.229 32Z" fill="black" fill-opacity="0.07"/>
<path fill-rule="evenodd" clip-rule="evenodd" d="M22.0153 172.138C14.8004 172.644 9.10416 178.657 9.10416 186C9.10416 193.674 15.3255 199.896 23 199.896C29.1484 199.896 34.3652 195.902 36.1959 190.367C34.787 190.949 33.2429 191.271 31.625 191.271C25.0091 191.271 19.6458 185.908 19.6458 179.292C19.6458 176.61 20.5277 174.134 22.0153 172.138ZM6.22916 186C6.22916 176.738 13.7377 169.229 23 169.229C23.8618 169.229 24.7092 169.294 25.5376 169.42C26.1106 169.507 26.5753 169.93 26.7161 170.492C26.8569 171.054 26.6464 171.646 26.1821 171.993C23.9568 173.655 22.5208 176.306 22.5208 179.292C22.5208 184.32 26.5969 188.396 31.625 188.396C33.7989 188.396 35.7914 187.636 37.3569 186.365C37.8067 186 38.4317 185.941 38.9422 186.215C39.4526 186.489 39.7489 187.042 39.6936 187.619C38.8783 196.122 31.7164 202.771 23 202.771C13.7377 202.771 6.22916 195.262 6.22916 186Z" fill="black" fill-opacity="0.07"/>
<path fill-rule="evenodd" clip-rule="evenodd" d="M478.015 246.138C470.8 246.644 465.104 252.657 465.104 260C465.104 267.674 471.326 273.896 479 273.896C485.148 273.896 490.365 269.902 492.196 264.367C490.787 264.949 489.243 265.271 487.625 265.271C481.009 265.271 475.646 259.908 475.646 253.292C475.646 250.61 476.528 248.134 478.015 246.138ZM462.229 260C462.229 250.738 469.738 243.229 479 243.229C479.862 243.229 480.709 243.294 481.538 243.42C482.111 243.507 482.575 243.93 482.716 244.492C482.857 245.054 482.646 245.646 482.182 245.993C479.957 247.655 478.521 250.306 478.521 253.292C478.521 258.32 482.597 262.396 487.625 262.396C489.799 262.396 491.791 261.636 493.357 260.365C493.807 260 494.432 259.941 494.942 260.215C495.453 260.489 495.749 261.042 495.694 261.619C494.878 270.122 487.716 276.771 479 276.771C469.738 276.771 462.229 269.262 462.229 260Z" fill="black" fill-opacity="0.07"/>
<g filter="url(#filter0_d_1_692)">
<rect x="148" y="159" width="54" height="54" rx="10" fill="white"/>
</g>
<path fill-rule="evenodd" clip-rule="evenodd" d="M184.278 179.001C179.28 178.536 174.246 178.536 169.248 179.001C169.155 179.009 169.119 179.065 169.114 179.079C168.629 180.501 168.629 182.052 169.114 183.474C169.119 183.488 169.155 183.544 169.248 183.553C174.246 184.017 179.28 184.017 184.278 183.553C184.372 183.544 184.408 183.488 184.412 183.474C184.898 182.052 184.898 180.501 184.412 179.079C184.408 179.065 184.372 179.009 184.278 179.001ZM184.394 177.756C179.319 177.284 174.208 177.284 169.133 177.756C168.573 177.808 168.103 178.172 167.931 178.675C167.356 180.359 167.356 182.195 167.931 183.878C168.103 184.381 168.573 184.745 169.133 184.797C174.208 185.269 179.319 185.269 184.394 184.797C184.953 184.745 185.424 184.381 185.595 183.878C186.171 182.195 186.171 180.359 185.595 178.675C185.424 178.172 184.953 177.808 184.394 177.756Z" fill="#FFA630"/>
<path fill-rule="evenodd" clip-rule="evenodd" d="M184.371 178.005C179.311 177.535 174.215 177.535 169.156 178.005C168.69 178.048 168.306 178.351 168.168 178.756C167.611 180.387 167.611 182.166 168.168 183.797C168.306 184.203 168.69 184.505 169.156 184.548C174.215 185.019 179.311 185.019 184.371 184.548C184.837 184.505 185.22 184.203 185.359 183.797C185.916 182.166 185.916 180.387 185.359 178.756C185.22 178.351 184.837 178.048 184.371 178.005ZM169.11 177.507C174.2 177.034 179.327 177.034 184.417 177.507C185.07 177.568 185.627 177.994 185.832 178.594C186.425 180.33 186.425 182.223 185.832 183.959C185.627 184.56 185.07 184.986 184.417 185.046C179.327 185.519 174.2 185.519 169.11 185.046C168.457 184.986 167.9 184.56 167.695 183.959C167.102 182.223 167.102 180.33 167.695 178.594C167.9 177.994 168.457 177.568 169.11 177.507ZM169.322 179.245C168.892 180.563 168.892 181.991 169.322 183.309C174.271 183.765 179.255 183.765 184.204 183.309C184.634 181.991 184.634 180.563 184.204 179.245C179.255 178.788 174.271 178.788 169.322 179.245ZM169.225 178.752C174.239 178.286 179.288 178.286 184.301 178.752C184.494 178.77 184.613 178.892 184.649 178.998C185.153 180.472 185.153 182.081 184.649 183.555L184.412 183.474L184.649 183.555C184.613 183.661 184.494 183.784 184.301 183.802C179.288 184.268 174.239 184.268 169.225 183.802C169.032 183.784 168.914 183.661 168.878 183.555C168.374 182.081 168.374 180.472 168.878 178.998C168.914 178.892 169.032 178.77 169.225 178.752Z" fill="#FFA630"/>
<path fill-rule="evenodd" clip-rule="evenodd" d="M168.974 188.391C168.675 189.9 168.675 191.553 168.974 193.062C171.595 193.447 174.232 193.447 176.853 193.062C177.151 191.553 177.151 189.9 176.853 188.391C174.232 188.006 171.595 188.006 168.974 188.391ZM177.373 187.206C174.407 186.734 171.42 186.734 168.454 187.206C168.127 187.258 167.852 187.622 167.752 188.125C167.416 189.808 167.416 191.644 167.752 193.328C167.852 193.831 168.127 194.195 168.454 194.247C171.42 194.719 174.407 194.719 177.373 194.247C177.7 194.195 177.974 193.831 178.075 193.328C178.411 191.644 178.411 189.808 178.075 188.125C177.974 187.622 177.7 187.258 177.373 187.206Z" fill="#FFA630"/>
<path fill-rule="evenodd" clip-rule="evenodd" d="M177.333 187.453C174.394 186.985 171.433 186.985 168.493 187.453C168.411 187.466 168.313 187.522 168.217 187.648C168.122 187.772 168.041 187.952 167.997 188.174C167.668 189.825 167.668 191.628 167.997 193.279C168.041 193.501 168.122 193.681 168.217 193.805C168.313 193.931 168.411 193.987 168.493 194C171.433 194.468 174.394 194.468 177.333 194C177.416 193.987 177.514 193.931 177.61 193.805C177.705 193.681 177.785 193.501 177.83 193.279C178.159 191.628 178.159 189.825 177.83 188.174C177.785 187.952 177.705 187.772 177.61 187.648C177.514 187.522 177.416 187.466 177.333 187.453ZM168.415 186.959C171.407 186.483 174.42 186.483 177.412 186.959C177.657 186.998 177.859 187.149 178.008 187.345C178.157 187.541 178.264 187.795 178.32 188.076C178.663 189.792 178.663 191.661 178.32 193.377C178.264 193.658 178.157 193.912 178.008 194.108C177.859 194.303 177.657 194.455 177.412 194.494C174.42 194.97 171.407 194.97 168.415 194.494C168.17 194.455 167.968 194.303 167.819 194.108C167.67 193.912 167.563 193.658 167.507 193.377C167.164 191.661 167.164 189.792 167.507 188.076C167.563 187.795 167.67 187.541 167.819 187.345C167.968 187.149 168.17 186.998 168.415 186.959ZM169.186 188.613C168.938 189.985 168.938 191.468 169.186 192.84C171.667 193.188 174.16 193.188 176.641 192.84C176.889 191.468 176.889 189.985 176.641 188.613C174.16 188.265 171.667 188.265 169.186 188.613ZM168.937 188.143C171.583 187.755 174.244 187.755 176.89 188.143L177.064 188.169L177.098 188.342C177.403 189.884 177.403 191.569 177.098 193.11L177.064 193.284L176.89 193.309C174.244 193.698 171.583 193.698 168.937 193.309L168.763 193.284L168.728 193.11C168.424 191.569 168.424 189.884 168.728 188.342L168.763 188.169L168.937 188.143Z" fill="#FFA630"/>
<path d="M163.936 175.373C163.936 175.029 164.214 174.75 164.558 174.75C164.902 174.75 165.181 175.029 165.181 175.373V196.627C165.181 196.971 164.902 197.25 164.558 197.25C164.214 197.25 163.936 196.971 163.936 196.627V175.373Z" fill="#FFA630"/>
<path fill-rule="evenodd" clip-rule="evenodd" d="M163.686 175.373C163.686 174.891 164.076 174.5 164.558 174.5C165.04 174.5 165.431 174.891 165.431 175.373V196.627C165.431 197.109 165.04 197.5 164.558 197.5C164.076 197.5 163.686 197.109 163.686 196.627V175.373ZM164.558 175C164.352 175 164.186 175.167 164.186 175.373V196.627C164.186 196.833 164.352 197 164.558 197C164.764 197 164.931 196.833 164.931 196.627V175.373C164.931 175.167 164.764 175 164.558 175Z" fill="#FFA630"/>
<path d="M252.917 267.75C251.858 267.75 251 268.608 251 269.667C251 270.725 251.858 271.583 252.917 271.583C253.975 271.583 254.833 270.725 254.833 269.667C254.833 268.608 253.975 267.75 252.917 267.75Z" fill="black" fill-opacity="0.07"/>
<path d="M247.167 271.583C246.108 271.583 245.25 272.441 245.25 273.5C245.25 274.559 246.108 275.417 247.167 275.417C248.225 275.417 249.083 274.559 249.083 273.5C249.083 272.441 248.225 271.583 247.167 271.583Z" fill="black" fill-opacity="0.07"/>
<path fill-rule="evenodd" clip-rule="evenodd" d="M255.779 245.229L255.773 245.229H246.227L246.221 245.229H244.292C243.498 245.229 242.854 245.873 242.854 246.667C242.854 247.461 243.498 248.104 244.292 248.104H244.79V257.854C244.79 260.642 243.951 263.365 242.383 265.67L236.454 274.387C234.948 276.601 236.336 279.622 238.996 279.921C246.974 280.819 255.026 280.819 263.004 279.921C265.664 279.622 267.052 276.601 265.546 274.387L259.617 265.67C258.049 263.365 257.21 260.642 257.21 257.854V248.104H257.708C258.502 248.104 259.146 247.461 259.146 246.667C259.146 245.873 258.502 245.229 257.708 245.229H255.779ZM239.318 277.064C247.081 277.938 254.919 277.938 262.682 277.064C263.192 277.007 263.458 276.428 263.169 276.004L257.239 267.287C256.817 266.666 256.439 266.02 256.106 265.354H245.894C245.561 266.02 245.183 266.666 244.761 267.287L238.831 276.004C238.542 276.428 238.808 277.007 239.318 277.064ZM247.014 262.479H254.986C254.557 260.984 254.335 259.427 254.335 257.854V248.104L247.665 248.104V257.854C247.665 259.427 247.443 260.984 247.014 262.479Z" fill="black" fill-opacity="0.07"/>
<path d="M480.917 113.75C479.858 113.75 479 114.608 479 115.667C479 116.725 479.858 117.583 480.917 117.583C481.975 117.583 482.833 116.725 482.833 115.667C482.833 114.608 481.975 113.75 480.917 113.75Z" fill="black" fill-opacity="0.07"/>
<path d="M475.167 117.583C474.108 117.583 473.25 118.441 473.25 119.5C473.25 120.559 474.108 121.417 475.167 121.417C476.225 121.417 477.083 120.559 477.083 119.5C477.083 118.441 476.225 117.583 475.167 117.583Z" fill="black" fill-opacity="0.07"/>
<path fill-rule="evenodd" clip-rule="evenodd" d="M483.779 91.2291L483.773 91.2291H474.227L474.221 91.2291H472.292C471.498 91.2291 470.854 91.8727 470.854 92.6666C470.854 93.4605 471.498 94.1041 472.292 94.1041H472.79V103.854C472.79 106.642 471.951 109.365 470.383 111.67L464.454 120.387C462.948 122.601 464.336 125.622 466.996 125.921C474.974 126.819 483.026 126.819 491.004 125.921C493.664 125.622 495.052 122.601 493.546 120.387L487.617 111.67C486.049 109.365 485.21 106.642 485.21 103.854V94.1041H485.708C486.502 94.1041 487.146 93.4605 487.146 92.6666C487.146 91.8727 486.502 91.2291 485.708 91.2291H483.779ZM467.318 123.064C475.081 123.938 482.919 123.938 490.682 123.064C491.192 123.007 491.458 122.428 491.169 122.004L485.239 113.287C484.817 112.666 484.439 112.02 484.106 111.354H473.894C473.561 112.02 473.183 112.666 472.761 113.287L466.831 122.004C466.542 122.428 466.808 123.007 467.318 123.064ZM475.014 108.479H482.986C482.557 106.984 482.335 105.427 482.335 103.854V94.1041L475.665 94.1041V103.854C475.665 105.427 475.443 106.984 475.014 108.479Z" fill="black" fill-opacity="0.07"/>
<path d="M404.917 265.75C403.858 265.75 403 266.608 403 267.667C403 268.725 403.858 269.583 404.917 269.583C405.975 269.583 406.833 268.725 406.833 267.667C406.833 266.608 405.975 265.75 404.917 265.75Z" fill="black" fill-opacity="0.07"/>
<path d="M399.167 269.583C398.108 269.583 397.25 270.441 397.25 271.5C397.25 272.559 398.108 273.417 399.167 273.417C400.225 273.417 401.083 272.559 401.083 271.5C401.083 270.441 400.225 269.583 399.167 269.583Z" fill="black" fill-opacity="0.07"/>
<path fill-rule="evenodd" clip-rule="evenodd" d="M407.779 243.229L407.773 243.229H398.227L398.221 243.229H396.292C395.498 243.229 394.854 243.873 394.854 244.667C394.854 245.461 395.498 246.104 396.292 246.104H396.79V255.854C396.79 258.642 395.951 261.365 394.383 263.67L388.454 272.387C386.948 274.601 388.336 277.622 390.996 277.921C398.974 278.819 407.026 278.819 415.004 277.921C417.664 277.622 419.052 274.601 417.546 272.387L411.617 263.67C410.049 261.365 409.21 258.642 409.21 255.854V246.104H409.708C410.502 246.104 411.146 245.461 411.146 244.667C411.146 243.873 410.502 243.229 409.708 243.229H407.779ZM391.318 275.064C399.081 275.938 406.919 275.938 414.682 275.064C415.192 275.007 415.458 274.428 415.169 274.004L409.239 265.287C408.817 264.666 408.439 264.02 408.106 263.354H397.894C397.561 264.02 397.183 264.666 396.761 265.287L390.831 274.004C390.542 274.428 390.808 275.007 391.318 275.064ZM399.014 260.479H406.986C406.557 258.984 406.335 257.427 406.335 255.854V246.104L399.665 246.104V255.854C399.665 257.427 399.443 258.984 399.014 260.479Z" fill="black" fill-opacity="0.07"/>
<path d="M24.9167 37.75C23.8581 37.75 23 38.6081 23 39.6666C23 40.7252 23.8581 41.5833 24.9167 41.5833C25.9752 41.5833 26.8333 40.7252 26.8333 39.6666C26.8333 38.6081 25.9752 37.75 24.9167 37.75Z" fill="black" fill-opacity="0.07"/>
<path d="M19.1667 41.5833C18.1081 41.5833 17.25 42.4414 17.25 43.5C17.25 44.5585 18.1081 45.4166 19.1667 45.4166C20.2252 45.4166 21.0833 44.5585 21.0833 43.5C21.0833 42.4414 20.2252 41.5833 19.1667 41.5833Z" fill="black" fill-opacity="0.07"/>
<path fill-rule="evenodd" clip-rule="evenodd" d="M27.7785 15.2291L27.7729 15.2291H18.2271L18.2214 15.2291H16.2917C15.4977 15.2291 14.8542 15.8727 14.8542 16.6666C14.8542 17.4605 15.4977 18.1041 16.2917 18.1041H16.7896V27.8542C16.7896 30.6418 15.9512 33.3649 14.3834 35.6697L8.45366 44.3871C6.94782 46.6009 8.33593 49.6218 10.9965 49.9211C18.9737 50.8186 27.0263 50.8186 35.0035 49.9211C37.6641 49.6218 39.0522 46.6009 37.5463 44.3871L31.6166 35.6697C30.0487 33.3649 29.2104 30.6418 29.2104 27.8542V18.1041H29.7083C30.5022 18.1041 31.1458 17.4605 31.1458 16.6666C31.1458 15.8727 30.5022 15.2291 29.7083 15.2291H27.7785ZM11.3179 47.0642C19.0815 47.9376 26.9185 47.9376 34.6821 47.0642C35.1917 47.0068 35.4576 46.4282 35.1692 46.0041L29.2394 37.2868C28.8172 36.6661 28.4388 36.0203 28.1058 35.3541H17.8942C17.5611 36.0203 17.1828 36.6661 16.7606 37.2867L10.8308 46.0041C10.5424 46.4282 10.8083 47.0068 11.3179 47.0642ZM19.0143 32.4791H26.9857C26.5566 30.9836 26.3354 29.4274 26.3354 27.8542V18.1041L19.6646 18.1041V27.8542C19.6646 29.4274 19.4434 30.9836 19.0143 32.4791Z" fill="black" fill-opacity="0.07"/>
<path d="M100.917 115.75C99.8581 115.75 99 116.608 99 117.667C99 118.725 99.8581 119.583 100.917 119.583C101.975 119.583 102.833 118.725 102.833 117.667C102.833 116.608 101.975 115.75 100.917 115.75Z" fill="black" fill-opacity="0.07"/>
<path d="M95.1667 119.583C94.1081 119.583 93.25 120.441 93.25 121.5C93.25 122.559 94.1081 123.417 95.1667 123.417C96.2252 123.417 97.0833 122.559 97.0833 121.5C97.0833 120.441 96.2252 119.583 95.1667 119.583Z" fill="black" fill-opacity="0.07"/>
<path fill-rule="evenodd" clip-rule="evenodd" d="M103.782 93.2292L103.773 93.2291H94.2271L94.2184 93.2292H92.2917C91.4978 93.2292 90.8542 93.8727 90.8542 94.6667C90.8542 95.4606 91.4978 96.1042 92.2917 96.1042H92.7896V105.805C84.2571 109.838 83.0245 121.6 90.6935 127.287L91.2589 127.707C95.8564 131.117 102.144 131.117 106.741 127.707L107.306 127.287C114.975 121.6 113.743 109.838 105.21 105.805V96.1042H105.708C106.502 96.1042 107.146 95.4606 107.146 94.6667C107.146 93.8727 106.502 93.2292 105.708 93.2292H103.782ZM92.9716 125.398C96.5519 128.053 101.448 128.053 105.028 125.398L105.594 124.978C109.457 122.113 110.393 117.251 108.745 113.354H89.2545C87.6073 117.251 88.5432 122.113 92.4062 124.978L92.9716 125.398ZM91.1356 110.479H106.864C105.998 109.568 104.924 108.803 103.653 108.255C102.853 107.911 102.335 107.123 102.335 106.253V96.1042H95.6646V106.253C95.6646 107.123 95.1467 107.911 94.3471 108.255C93.0756 108.803 92.0024 109.568 91.1356 110.479Z" fill="black" fill-opacity="0.07"/>
<path d="M328.917 191.75C327.858 191.75 327 192.608 327 193.667C327 194.725 327.858 195.583 328.917 195.583C329.975 195.583 330.833 194.725 330.833 193.667C330.833 192.608 329.975 191.75 328.917 191.75Z" fill="black" fill-opacity="0.07"/>
<path d="M323.167 195.583C322.108 195.583 321.25 196.441 321.25 197.5C321.25 198.559 322.108 199.417 323.167 199.417C324.225 199.417 325.083 198.559 325.083 197.5C325.083 196.441 324.225 195.583 323.167 195.583Z" fill="black" fill-opacity="0.07"/>
<path fill-rule="evenodd" clip-rule="evenodd" d="M331.782 169.229L331.773 169.229H322.227L322.218 169.229H320.292C319.498 169.229 318.854 169.873 318.854 170.667C318.854 171.461 319.498 172.104 320.292 172.104H320.79V181.805C312.257 185.838 311.025 197.6 318.694 203.287L319.259 203.707C323.856 207.117 330.144 207.117 334.741 203.707L335.306 203.287C342.975 197.6 341.743 185.838 333.21 181.805V172.104H333.708C334.502 172.104 335.146 171.461 335.146 170.667C335.146 169.873 334.502 169.229 333.708 169.229H331.782ZM320.972 201.398C324.552 204.053 329.448 204.053 333.028 201.398L333.594 200.978C337.457 198.113 338.393 193.251 336.745 189.354H317.255C315.607 193.251 316.543 198.113 320.406 200.978L320.972 201.398ZM319.136 186.479H334.864C333.998 185.568 332.924 184.803 331.653 184.255C330.853 183.911 330.335 183.123 330.335 182.253V172.104H323.665V182.253C323.665 183.123 323.147 183.911 322.347 184.255C321.076 184.803 320.002 185.568 319.136 186.479Z" fill="black" fill-opacity="0.07"/>
<path fill-rule="evenodd" clip-rule="evenodd" d="M172.138 241.89C172.486 241.49 173.027 241.313 173.544 241.432C180.461 243.02 183.958 250.6 183.135 257.381C182.816 260.017 182.026 262.084 180.863 263.728C180.856 263.738 180.849 263.748 180.842 263.758C181.106 263.629 181.35 263.489 181.578 263.341C182.712 262.604 183.545 261.632 184.629 260.367C184.76 260.214 184.895 260.057 185.034 259.895C185.348 259.532 185.821 259.349 186.297 259.407C186.773 259.465 187.189 259.757 187.406 260.185C188.359 262.07 188.896 264.2 188.896 266.452C188.896 274.126 182.674 280.347 175 280.347C167.326 280.347 161.104 274.126 161.104 266.452C161.104 261.589 163.603 257.311 167.38 254.83L167.509 254.699C167.576 254.632 167.649 254.572 167.727 254.519C169.387 253.403 170.578 252.489 171.381 251.415C172.139 250.4 172.604 249.162 172.604 247.285C172.604 245.895 172.347 244.568 171.88 243.347C171.69 242.851 171.789 242.291 172.138 241.89ZM175.328 245.231C175.428 245.901 175.479 246.587 175.479 247.285C175.479 249.716 174.851 251.573 173.684 253.135C172.588 254.603 171.071 255.729 169.451 256.825L169.312 256.964C169.238 257.039 169.156 257.106 169.067 257.162C166.004 259.123 163.979 262.551 163.979 266.452C163.979 272.538 168.913 277.472 175 277.472C181.087 277.472 186.021 272.538 186.021 266.452C186.021 265.455 185.889 264.491 185.642 263.575C184.913 264.364 184.109 265.125 183.143 265.752C181.373 266.901 179.159 267.556 175.958 267.556C175.302 267.556 174.73 267.112 174.566 266.477C174.403 265.842 174.69 265.176 175.265 264.86C176.566 264.143 177.669 263.267 178.516 262.068C179.362 260.873 180.01 259.276 180.281 257.035C180.869 252.185 178.862 247.397 175.328 245.231Z" fill="black" fill-opacity="0.07"/>
<path fill-rule="evenodd" clip-rule="evenodd" d="M476.138 163.89C476.486 163.49 477.027 163.313 477.544 163.432C484.461 165.02 487.958 172.6 487.135 179.381C486.816 182.017 486.026 184.084 484.863 185.728C484.856 185.738 484.849 185.748 484.842 185.758C485.106 185.629 485.35 185.489 485.578 185.341C486.712 184.604 487.545 183.632 488.629 182.367C488.76 182.214 488.895 182.057 489.034 181.895C489.348 181.532 489.821 181.349 490.297 181.407C490.773 181.465 491.189 181.757 491.406 182.185C492.359 184.07 492.896 186.2 492.896 188.452C492.896 196.126 486.674 202.347 479 202.347C471.326 202.347 465.104 196.126 465.104 188.452C465.104 183.589 467.603 179.311 471.38 176.83L471.509 176.699C471.576 176.632 471.649 176.572 471.727 176.519C473.387 175.403 474.578 174.489 475.381 173.415C476.139 172.4 476.604 171.162 476.604 169.285C476.604 167.895 476.347 166.568 475.88 165.347C475.69 164.851 475.789 164.291 476.138 163.89ZM479.328 167.231C479.428 167.901 479.479 168.587 479.479 169.285C479.479 171.716 478.851 173.573 477.684 175.135C476.588 176.603 475.071 177.729 473.451 178.825L473.312 178.964C473.238 179.039 473.156 179.106 473.067 179.162C470.004 181.123 467.979 184.551 467.979 188.452C467.979 194.538 472.913 199.472 479 199.472C485.087 199.472 490.021 194.538 490.021 188.452C490.021 187.455 489.889 186.491 489.642 185.575C488.913 186.364 488.109 187.125 487.143 187.752C485.373 188.901 483.159 189.556 479.958 189.556C479.302 189.556 478.73 189.112 478.566 188.477C478.403 187.842 478.69 187.176 479.265 186.86C480.566 186.143 481.669 185.267 482.516 184.068C483.362 182.873 484.01 181.276 484.281 179.035C484.869 174.185 482.862 169.397 479.328 167.231Z" fill="black" fill-opacity="0.07"/>
<path fill-rule="evenodd" clip-rule="evenodd" d="M324.138 241.89C324.486 241.49 325.027 241.313 325.544 241.432C332.461 243.02 335.958 250.6 335.135 257.381C334.816 260.017 334.026 262.084 332.863 263.728C332.856 263.738 332.849 263.748 332.842 263.758C333.106 263.629 333.35 263.489 333.578 263.341C334.712 262.604 335.545 261.632 336.629 260.367C336.76 260.214 336.895 260.057 337.034 259.895C337.348 259.532 337.821 259.349 338.297 259.407C338.773 259.465 339.189 259.757 339.406 260.185C340.359 262.07 340.896 264.2 340.896 266.452C340.896 274.126 334.674 280.347 327 280.347C319.326 280.347 313.104 274.126 313.104 266.452C313.104 261.589 315.603 257.311 319.38 254.83L319.509 254.699C319.576 254.632 319.649 254.572 319.727 254.519C321.387 253.403 322.578 252.489 323.381 251.415C324.139 250.4 324.604 249.162 324.604 247.285C324.604 245.895 324.347 244.568 323.88 243.347C323.69 242.851 323.789 242.291 324.138 241.89ZM327.328 245.231C327.428 245.901 327.479 246.587 327.479 247.285C327.479 249.716 326.851 251.573 325.684 253.135C324.588 254.603 323.071 255.729 321.451 256.825L321.312 256.964C321.238 257.039 321.156 257.106 321.067 257.162C318.004 259.123 315.979 262.551 315.979 266.452C315.979 272.538 320.913 277.472 327 277.472C333.087 277.472 338.021 272.538 338.021 266.452C338.021 265.455 337.889 264.491 337.642 263.575C336.913 264.364 336.109 265.125 335.143 265.752C333.373 266.901 331.159 267.556 327.958 267.556C327.302 267.556 326.73 267.112 326.566 266.477C326.403 265.842 326.69 265.176 327.265 264.86C328.566 264.143 329.669 263.267 330.516 262.068C331.362 260.873 332.01 259.276 332.281 257.035C332.869 252.185 330.862 247.397 327.328 245.231Z" fill="black" fill-opacity="0.07"/>
<g filter="url(#filter1_d_1_692)">
<rect x="72" y="7" width="54" height="54" rx="10" fill="white"/>
</g>
<path d="M95.8371 27.1629C96.2032 27.529 96.7968 27.529 97.1629 27.1629L98.0625 26.2633V33.0625H91.2633L92.1629 32.1629C92.529 31.7968 92.529 31.2032 92.1629 30.8371C91.7968 30.471 91.2032 30.471 90.8371 30.8371L88.3371 33.3371C87.971 33.7032 87.971 34.2968 88.3371 34.6629L90.8371 37.1629C91.2032 37.529 91.7968 37.529 92.1629 37.1629C92.529 36.7968 92.529 36.2032 92.1629 35.8371L91.2633 34.9375H98.0625V41.7367L97.1629 40.8371C96.7968 40.471 96.2032 40.471 95.8371 40.8371C95.471 41.2032 95.471 41.7968 95.8371 42.1629L98.3371 44.6629C98.7032 45.029 99.2968 45.029 99.6629 44.6629L102.163 42.1629C102.529 41.7968 102.529 41.2032 102.163 40.8371C101.797 40.471 101.203 40.471 100.837 40.8371L99.9375 41.7367V34.9375H106.737L105.837 35.8371C105.471 36.2032 105.471 36.7968 105.837 37.1629C106.203 37.529 106.797 37.529 107.163 37.1629L109.663 34.6629C110.029 34.2968 110.029 33.7032 109.663 33.3371L107.163 30.8371C106.797 30.471 106.203 30.471 105.837 30.8371C105.471 31.2032 105.471 31.7968 105.837 32.1629L106.737 33.0625H99.9375V26.2633L100.837 27.1629C101.203 27.529 101.797 27.529 102.163 27.1629C102.529 26.7968 102.529 26.2032 102.163 25.8371L99.6629 23.3371C99.2968 22.971 98.7032 22.971 98.3371 23.3371L95.8371 25.8371C95.471 26.2032 95.471 26.7968 95.8371 27.1629Z" fill="#FFA630"/>
<path fill-rule="evenodd" clip-rule="evenodd" d="M96.1378 165.89C96.4861 165.49 97.0269 165.313 97.5444 165.432C104.461 167.02 107.958 174.6 107.135 181.381C106.816 184.017 106.026 186.084 104.863 187.728C104.856 187.738 104.849 187.748 104.842 187.758C105.106 187.629 105.35 187.489 105.578 187.341C106.712 186.604 107.545 185.632 108.629 184.367C108.76 184.214 108.895 184.057 109.034 183.895C109.348 183.532 109.821 183.349 110.297 183.407C110.773 183.465 111.189 183.757 111.406 184.185C112.359 186.07 112.896 188.2 112.896 190.452C112.896 198.126 106.674 204.347 99 204.347C91.3255 204.347 85.1042 198.126 85.1042 190.452C85.1042 185.589 87.6029 181.311 91.3799 178.83L91.5094 178.699C91.5759 178.632 91.6489 178.572 91.7273 178.519C93.3868 177.403 94.5785 176.489 95.3808 175.415C96.1387 174.4 96.6042 173.162 96.6042 171.285C96.6042 169.895 96.3475 168.568 95.8802 167.347C95.6904 166.851 95.7895 166.291 96.1378 165.89ZM99.3282 169.231C99.4277 169.901 99.4792 170.587 99.4792 171.285C99.4792 173.716 98.8511 175.573 97.6842 177.135C96.5883 178.603 95.0714 179.729 93.4506 180.825L93.312 180.964C93.2378 181.039 93.1555 181.106 93.0668 181.162C90.0041 183.123 87.9792 186.551 87.9792 190.452C87.9792 196.538 92.9134 201.472 99 201.472C105.087 201.472 110.021 196.538 110.021 190.452C110.021 189.455 109.889 188.491 109.642 187.575C108.913 188.364 108.109 189.125 107.143 189.752C105.373 190.901 103.159 191.556 99.9583 191.556C99.3024 191.556 98.7296 191.112 98.5662 190.477C98.4027 189.842 98.6901 189.176 99.2647 188.86C100.566 188.143 101.669 187.267 102.516 186.068C103.362 184.873 104.01 183.276 104.281 181.035C104.869 176.185 102.862 171.397 99.3282 169.231Z" fill="black" fill-opacity="0.07"/>
<path fill-rule="evenodd" clip-rule="evenodd" d="M240.526 169.229C239.404 169.229 238.357 169.79 237.735 170.723L230.856 181.042C230.434 181.673 230.384 182.482 230.724 183.162C234.488 190.691 239.72 197.391 246.111 202.869L249.467 205.746C250.349 206.502 251.651 206.502 252.533 205.746L255.889 202.869C262.28 197.391 267.512 190.691 271.276 183.162C271.616 182.482 271.566 181.673 271.144 181.042L264.265 170.723C263.643 169.79 262.596 169.229 261.474 169.229H240.526ZM240.127 172.317C240.216 172.184 240.366 172.104 240.526 172.104H245.01L241.34 180.914C241.255 181.117 241.191 181.326 241.148 181.538C239.799 181.438 238.452 181.317 237.105 181.175L234.411 180.892L240.127 172.317ZM234.284 183.769C237.721 190.075 242.26 195.72 247.69 200.435L241.7 184.46C240.066 184.348 238.434 184.206 236.804 184.034L234.284 183.769ZM244.838 184.639L251 201.073L257.162 184.639C253.056 184.826 248.944 184.826 244.838 184.639ZM260.3 184.46L254.31 200.435C259.74 195.72 264.279 190.075 267.716 183.769L265.196 184.034C263.566 184.206 261.934 184.348 260.3 184.46ZM267.589 180.892L264.895 181.175C263.548 181.317 262.201 181.438 260.852 181.538C260.809 181.326 260.745 181.117 260.66 180.914L256.99 172.104H261.474C261.634 172.104 261.784 172.184 261.873 172.317L267.589 180.892ZM257.884 181.726C253.298 181.964 248.702 181.964 244.116 181.726L248.125 172.104H253.875L257.884 181.726Z" fill="black" fill-opacity="0.07"/>
<path fill-rule="evenodd" clip-rule="evenodd" d="M468.526 15.2291C467.404 15.2291 466.357 15.7896 465.735 16.7227L458.856 27.0417C458.434 27.6735 458.384 28.4824 458.724 29.1615C462.488 36.6906 467.72 43.3912 474.111 48.8694L477.467 51.7456C478.349 52.5019 479.651 52.5019 480.533 51.7456L483.889 48.8694C490.28 43.3912 495.512 36.6906 499.276 29.1615C499.616 28.4824 499.566 27.6735 499.144 27.0417L492.265 16.7227C491.643 15.7896 490.596 15.2291 489.474 15.2291H468.526ZM468.127 18.3175C468.216 18.1842 468.366 18.1041 468.526 18.1041H473.01L469.34 26.9137C469.255 27.1166 469.191 27.3259 469.148 27.5384C467.799 27.438 466.452 27.317 465.105 27.1752L462.411 26.8916L468.127 18.3175ZM462.284 29.7692C465.721 36.0749 470.26 41.7201 475.69 46.4348L469.7 30.4602C468.066 30.3479 466.434 30.206 464.804 30.0344L462.284 29.7692ZM472.838 30.6394L479 47.0726L485.162 30.6394C481.056 30.8262 476.944 30.8262 472.838 30.6394ZM488.3 30.4602L482.31 46.4348C487.74 41.7201 492.279 36.0749 495.716 29.7692L493.196 30.0344C491.566 30.206 489.934 30.3479 488.3 30.4602ZM495.589 26.8916L492.895 27.1752C491.548 27.317 490.201 27.438 488.852 27.5384C488.809 27.3259 488.745 27.1166 488.66 26.9137L484.99 18.1041H489.474C489.634 18.1041 489.784 18.1842 489.873 18.3175L495.589 26.8916ZM485.884 27.7259C481.298 27.9641 476.702 27.9641 472.116 27.7259L476.125 18.1041H481.875L485.884 27.7259Z" fill="black" fill-opacity="0.07"/>
<path fill-rule="evenodd" clip-rule="evenodd" d="M392.526 167.229C391.404 167.229 390.357 167.79 389.735 168.723L382.856 179.042C382.434 179.673 382.384 180.482 382.724 181.162C386.488 188.691 391.72 195.391 398.111 200.869L401.467 203.746C402.349 204.502 403.651 204.502 404.533 203.746L407.889 200.869C414.28 195.391 419.512 188.691 423.276 181.162C423.616 180.482 423.566 179.673 423.144 179.042L416.265 168.723C415.643 167.79 414.596 167.229 413.474 167.229H392.526ZM392.127 170.317C392.216 170.184 392.366 170.104 392.526 170.104H397.01L393.34 178.914C393.255 179.117 393.191 179.326 393.148 179.538C391.799 179.438 390.452 179.317 389.105 179.175L386.411 178.892L392.127 170.317ZM386.284 181.769C389.721 188.075 394.26 193.72 399.69 198.435L393.7 182.46C392.066 182.348 390.434 182.206 388.804 182.034L386.284 181.769ZM396.838 182.639L403 199.073L409.162 182.639C405.056 182.826 400.944 182.826 396.838 182.639ZM412.3 182.46L406.31 198.435C411.74 193.72 416.279 188.075 419.716 181.769L417.196 182.034C415.566 182.206 413.934 182.348 412.3 182.46ZM419.589 178.892L416.895 179.175C415.548 179.317 414.201 179.438 412.852 179.538C412.809 179.326 412.745 179.117 412.66 178.914L408.99 170.104H413.474C413.634 170.104 413.784 170.184 413.873 170.317L419.589 178.892ZM409.884 179.726C405.298 179.964 400.702 179.964 396.116 179.726L400.125 170.104H405.875L409.884 179.726Z" fill="black" fill-opacity="0.07"/>
<path fill-rule="evenodd" clip-rule="evenodd" d="M239.979 97.5417C239.979 94.1014 242.768 91.3125 246.208 91.3125C248.135 91.3125 249.857 92.1872 251 93.5612C252.143 92.1872 253.865 91.3125 255.792 91.3125C259.232 91.3125 262.021 94.1014 262.021 97.5417C262.021 98.7766 261.661 99.9276 261.042 100.896H262.5C265.411 100.896 267.771 103.256 267.771 106.167V110C267.771 111.541 266.731 112.84 265.315 113.233C265.591 116.733 265.431 120.257 264.837 123.723C264.483 125.792 262.802 127.377 260.716 127.611L258.963 127.806C253.671 128.398 248.329 128.398 243.037 127.806L241.284 127.611C239.198 127.377 237.517 125.792 237.163 123.723C236.569 120.257 236.409 116.733 236.685 113.233C235.269 112.84 234.229 111.541 234.229 110V106.167C234.229 103.256 236.589 100.896 239.5 100.896H240.958C240.339 99.9276 239.979 98.7766 239.979 97.5417ZM249.562 97.5417C249.562 95.6892 248.061 94.1875 246.208 94.1875C244.356 94.1875 242.854 95.6892 242.854 97.5417C242.854 99.3941 244.356 100.896 246.208 100.896C248.061 100.896 249.562 99.3941 249.562 97.5417ZM255.792 100.896C257.644 100.896 259.146 99.3941 259.146 97.5417C259.146 95.6892 257.644 94.1875 255.792 94.1875C253.939 94.1875 252.437 95.6892 252.437 97.5417C252.437 99.3941 253.939 100.896 255.792 100.896ZM237.104 106.167C237.104 104.843 238.177 103.771 239.5 103.771H249.562V110.479H237.583C237.319 110.479 237.104 110.265 237.104 110V106.167ZM252.437 113.354H262.441C262.709 116.652 262.563 119.972 262.004 123.237C261.865 124.044 261.21 124.662 260.396 124.753L258.643 124.949C256.581 125.18 254.51 125.317 252.437 125.36V113.354ZM252.437 110.479H264.417C264.681 110.479 264.896 110.265 264.896 110V106.167C264.896 104.843 263.823 103.771 262.5 103.771H252.437V110.479ZM249.562 113.354V125.36C247.49 125.317 245.419 125.18 243.357 124.949L241.604 124.753C240.79 124.662 240.135 124.044 239.996 123.237C239.437 119.972 239.291 116.652 239.559 113.354H249.562Z" fill="black" fill-opacity="0.07"/>
<path fill-rule="evenodd" clip-rule="evenodd" d="M391.979 95.5417C391.979 92.1014 394.768 89.3125 398.208 89.3125C400.135 89.3125 401.857 90.1872 403 91.5612C404.143 90.1872 405.865 89.3125 407.792 89.3125C411.232 89.3125 414.021 92.1014 414.021 95.5417C414.021 96.7766 413.661 97.9276 413.042 98.8958H414.5C417.411 98.8958 419.771 101.256 419.771 104.167V108C419.771 109.541 418.731 110.84 417.315 111.233C417.591 114.733 417.431 118.257 416.837 121.723C416.483 123.792 414.802 125.377 412.716 125.611L410.963 125.806C405.671 126.398 400.329 126.398 395.037 125.806L393.284 125.611C391.198 125.377 389.517 123.792 389.163 121.723C388.569 118.257 388.409 114.733 388.685 111.233C387.269 110.84 386.229 109.541 386.229 108V104.167C386.229 101.256 388.589 98.8958 391.5 98.8958H392.958C392.339 97.9276 391.979 96.7766 391.979 95.5417ZM401.562 95.5417C401.562 93.6892 400.061 92.1875 398.208 92.1875C396.356 92.1875 394.854 93.6892 394.854 95.5417C394.854 97.3941 396.356 98.8958 398.208 98.8958C400.061 98.8958 401.562 97.3941 401.562 95.5417ZM407.792 98.8958C409.644 98.8958 411.146 97.3941 411.146 95.5417C411.146 93.6892 409.644 92.1875 407.792 92.1875C405.939 92.1875 404.438 93.6892 404.438 95.5417C404.438 97.3941 405.939 98.8958 407.792 98.8958ZM389.104 104.167C389.104 102.843 390.177 101.771 391.5 101.771H401.562V108.479H389.583C389.319 108.479 389.104 108.265 389.104 108V104.167ZM404.438 111.354H414.441C414.709 114.652 414.563 117.972 414.004 121.237C413.865 122.044 413.21 122.662 412.396 122.753L410.644 122.949C408.581 123.18 406.51 123.317 404.438 123.36V111.354ZM404.438 108.479H416.417C416.681 108.479 416.896 108.265 416.896 108V104.167C416.896 102.843 415.823 101.771 414.5 101.771H404.438V108.479ZM401.562 111.354V123.36C399.49 123.317 397.419 123.18 395.357 122.949L393.604 122.753C392.79 122.662 392.135 122.044 391.996 121.237C391.437 117.972 391.291 114.652 391.559 111.354H401.562Z" fill="black" fill-opacity="0.07"/>
<g filter="url(#filter2_d_1_692)">
<rect x="72" y="235" width="54" height="54" rx="10" fill="white"/>
</g>
<path fill-rule="evenodd" clip-rule="evenodd" d="M90.5685 251.655C90.4444 250.166 92.113 249.342 93.2584 250.107L93.6289 250.355C99.2784 254.129 104.566 258.388 109.427 263.081C110.638 264.25 109.57 266.095 108.059 265.933L101.476 265.228C100.806 265.156 100.188 265.516 99.9336 266.078L97.2728 271.949C96.6302 273.367 94.5135 273.235 94.0923 271.705C92.3239 265.281 91.1566 258.716 90.6046 252.089L90.5685 251.655ZM92.4647 251.832L92.4732 251.934C93.0017 258.279 94.1044 264.567 95.7686 270.726L98.2258 265.304C98.8264 263.979 100.231 263.209 101.676 263.364L107.684 264.007C103.026 259.559 97.9743 255.513 92.5874 251.914L92.4647 251.832Z" fill="#FFA630"/>
<path fill-rule="evenodd" clip-rule="evenodd" d="M175 91.3125C174.206 91.3125 173.562 91.9561 173.562 92.75V100.417C173.562 100.416 173.562 100.417 173.562 100.417L173.562 114.331C172.142 113.124 170.302 112.396 168.292 112.396C163.793 112.396 160.146 116.043 160.146 120.542C160.146 125.04 163.793 128.688 168.292 128.688C172.79 128.688 176.437 125.04 176.437 120.542C176.437 120.314 176.428 120.088 176.41 119.865C176.428 119.774 176.437 119.68 176.437 119.583L176.437 101.854H186.5C189.411 101.854 191.771 99.4943 191.771 96.5833C191.771 93.6723 189.411 91.3125 186.5 91.3125H175ZM176.437 98.9792H186.5C187.823 98.9792 188.896 97.9065 188.896 96.5833C188.896 95.2602 187.823 94.1875 186.5 94.1875H176.437V98.9792ZM168.292 115.271C165.381 115.271 163.021 117.631 163.021 120.542C163.021 123.453 165.381 125.812 168.292 125.812C171.203 125.812 173.562 123.453 173.562 120.542C173.562 117.631 171.203 115.271 168.292 115.271Z" fill="black" fill-opacity="0.07"/>
<path fill-rule="evenodd" clip-rule="evenodd" d="M327 91.3125C326.206 91.3125 325.562 91.9561 325.562 92.75V100.417C325.562 100.416 325.562 100.417 325.562 100.417L325.562 114.331C324.142 113.124 322.302 112.396 320.292 112.396C315.793 112.396 312.146 116.043 312.146 120.542C312.146 125.04 315.793 128.688 320.292 128.688C324.79 128.688 328.437 125.04 328.437 120.542C328.437 120.314 328.428 120.088 328.41 119.865C328.428 119.774 328.438 119.68 328.438 119.583L328.437 101.854H338.5C341.411 101.854 343.771 99.4943 343.771 96.5833C343.771 93.6723 341.411 91.3125 338.5 91.3125H327ZM328.437 98.9792H338.5C339.823 98.9792 340.896 97.9065 340.896 96.5833C340.896 95.2602 339.823 94.1875 338.5 94.1875H328.437V98.9792ZM320.292 115.271C317.381 115.271 315.021 117.631 315.021 120.542C315.021 123.453 317.381 125.812 320.292 125.812C323.203 125.812 325.562 123.453 325.562 120.542C325.562 117.631 323.203 115.271 320.292 115.271Z" fill="black" fill-opacity="0.07"/>
<g filter="url(#filter3_d_1_692)">
<rect x="224" y="7" width="54" height="54" rx="10" fill="white"/>
</g>
<path fill-rule="evenodd" clip-rule="evenodd" d="M249.108 24.1427C249.951 22.6899 252.049 22.6899 252.892 24.1427L255.474 28.5919C255.712 29.002 256.123 29.2819 256.592 29.3527L260.879 30.0002C262.748 30.2825 263.403 32.6419 261.948 33.8477L258.824 36.4356C258.386 36.7988 258.18 37.3718 258.286 37.9311L259.161 42.526C259.504 44.326 257.614 45.7245 255.993 44.8708L251.728 42.6251C251.272 42.3851 250.728 42.3851 250.272 42.6251L246.007 44.8708C244.386 45.7245 242.496 44.326 242.839 42.526L243.714 37.9311C243.82 37.3718 243.614 36.7988 243.176 36.4356L240.052 33.8477C238.597 32.6419 239.252 30.2825 241.121 30.0002L245.408 29.3527C245.877 29.2819 246.288 29.002 246.526 28.5919L249.108 24.1427ZM251.27 25.0838C251.15 24.8762 250.85 24.8762 250.73 25.0838L248.148 29.533C247.624 30.4352 246.72 31.0509 245.688 31.2067L241.401 31.8542C241.134 31.8945 241.041 32.2316 241.248 32.4038L244.372 34.9917C245.337 35.7908 245.79 37.0513 245.556 38.2818L244.681 42.8768C244.632 43.1339 244.902 43.3337 245.133 43.2117L249.398 40.966C250.401 40.4382 251.599 40.4382 252.602 40.966L256.867 43.2117C257.098 43.3337 257.368 43.1339 257.319 42.8768L256.444 38.2818C256.21 37.0513 256.663 35.7908 257.628 34.9917L260.752 32.4038C260.959 32.2316 260.866 31.8945 260.599 31.8542L256.312 31.2067C255.28 31.0509 254.376 30.4352 253.852 29.533L251.27 25.0838Z" fill="#FFA630"/>
<path fill-rule="evenodd" clip-rule="evenodd" d="M20.0989 94.8855C21.3915 92.6578 24.6085 92.6578 25.9011 94.8855L29.8597 101.708C30.2246 102.336 30.8553 102.766 31.5742 102.874L38.1477 103.867C41.0131 104.3 42.0182 107.918 39.7866 109.766L34.9971 113.735C34.3248 114.291 34.0087 115.17 34.172 116.028L35.5137 123.073C36.0392 125.833 33.1419 127.977 30.656 126.669L24.1162 123.225C23.4176 122.857 22.5825 122.857 21.8838 123.225L15.3441 126.669C12.8581 127.977 9.96083 125.833 10.4864 123.073L11.828 116.028C11.9913 115.17 11.6752 114.291 11.003 113.734L6.2134 109.766C3.98185 107.918 4.98696 104.3 7.85237 103.867L14.4259 102.874C15.1447 102.766 15.7754 102.336 16.1403 101.708L20.0989 94.8855ZM23.4145 96.3284C23.2298 96.0102 22.7702 96.0102 22.5856 96.3284L18.627 103.151C17.8242 104.534 16.4367 105.478 14.8552 105.717L8.28173 106.71C7.87238 106.772 7.7288 107.288 8.04759 107.552L12.8372 111.521C14.3161 112.746 15.0115 114.679 14.6523 116.565L13.3106 123.611C13.2355 124.005 13.6494 124.312 14.0046 124.125L20.5443 120.681C22.0814 119.872 23.9186 119.872 25.4557 120.681L31.9954 124.125C32.3506 124.312 32.7645 124.005 32.6894 123.611L31.3478 116.565C30.9885 114.679 31.6839 112.746 33.1629 111.521L37.9524 107.552C38.2712 107.288 38.1276 106.772 37.7183 106.71L31.1448 105.717C29.5633 105.478 28.1758 104.534 27.3731 103.151L23.4145 96.3284Z" fill="black" fill-opacity="0.07"/>
<path fill-rule="evenodd" clip-rule="evenodd" d="M400.099 16.8855C401.392 14.6578 404.609 14.6578 405.901 16.8855L409.86 23.7076C410.225 24.3364 410.855 24.7655 411.574 24.8741L418.148 25.867C421.013 26.2997 422.018 29.9176 419.787 31.7664L414.997 35.7345C414.325 36.2915 414.009 37.17 414.172 38.0276L415.514 45.0732C416.039 47.8331 413.142 49.9775 410.656 48.6685L404.116 45.2251C403.418 44.8572 402.582 44.8572 401.884 45.2251L395.344 48.6685C392.858 49.9775 389.961 47.8331 390.486 45.0732L391.828 38.0276C391.991 37.17 391.675 36.2915 391.003 35.7345L386.213 31.7664C383.982 29.9176 384.987 26.2997 387.852 25.867L394.426 24.8741C395.145 24.7655 395.775 24.3364 396.14 23.7076L400.099 16.8855ZM403.414 18.3284C403.23 18.0102 402.77 18.0102 402.586 18.3284L398.627 25.1505C397.824 26.5339 396.437 27.478 394.855 27.7169L388.282 28.7097C387.872 28.7715 387.729 29.2884 388.048 29.5525L392.837 33.5206C394.316 34.7459 395.012 36.6787 394.652 38.5654L393.311 45.611C393.236 46.0053 393.649 46.3116 394.005 46.1246L400.544 42.6812C402.081 41.8718 403.919 41.8718 405.456 42.6812L411.995 46.1246C412.351 46.3116 412.764 46.0053 412.689 45.611L411.348 38.5654C410.988 36.6787 411.684 34.7459 413.163 33.5206L417.952 29.5525C418.271 29.2884 418.128 28.7715 417.718 28.7097L411.145 27.7169C409.563 27.478 408.176 26.5339 407.373 25.1505L403.414 18.3284Z" fill="black" fill-opacity="0.07"/>
<defs>
<filter id="filter0_d_1_692" x="132" y="152" width="86" height="86" filterUnits="userSpaceOnUse" color-interpolation-filters="sRGB">
<feFlood flood-opacity="0" result="BackgroundImageFix"/>
<feColorMatrix in="SourceAlpha" type="matrix" values="0 0 0 0 0 0 0 0 0 0 0 0 0 0 0 0 0 0 127 0" result="hardAlpha"/>
<feMorphology radius="4" operator="erode" in="SourceAlpha" result="effect1_dropShadow_1_692"/>
<feOffset dy="9"/>
<feGaussianBlur stdDeviation="10"/>
<feComposite in2="hardAlpha" operator="out"/>
<feColorMatrix type="matrix" values="0 0 0 0 0 0 0 0 0 0 0 0 0 0 0 0 0 0 0.25 0"/>
<feBlend mode="normal" in2="BackgroundImageFix" result="effect1_dropShadow_1_692"/>
<feBlend mode="normal" in="SourceGraphic" in2="effect1_dropShadow_1_692" result="shape"/>
</filter>
<filter id="filter1_d_1_692" x="56" y="0" width="86" height="86" filterUnits="userSpaceOnUse" color-interpolation-filters="sRGB">
<feFlood flood-opacity="0" result="BackgroundImageFix"/>
<feColorMatrix in="SourceAlpha" type="matrix" values="0 0 0 0 0 0 0 0 0 0 0 0 0 0 0 0 0 0 127 0" result="hardAlpha"/>
<feMorphology radius="4" operator="erode" in="SourceAlpha" result="effect1_dropShadow_1_692"/>
<feOffset dy="9"/>
<feGaussianBlur stdDeviation="10"/>
<feComposite in2="hardAlpha" operator="out"/>
<feColorMatrix type="matrix" values="0 0 0 0 0 0 0 0 0 0 0 0 0 0 0 0 0 0 0.25 0"/>
<feBlend mode="normal" in2="BackgroundImageFix" result="effect1_dropShadow_1_692"/>
<feBlend mode="normal" in="SourceGraphic" in2="effect1_dropShadow_1_692" result="shape"/>
</filter>
<filter id="filter2_d_1_692" x="56" y="228" width="86" height="86" filterUnits="userSpaceOnUse" color-interpolation-filters="sRGB">
<feFlood flood-opacity="0" result="BackgroundImageFix"/>
<feColorMatrix in="SourceAlpha" type="matrix" values="0 0 0 0 0 0 0 0 0 0 0 0 0 0 0 0 0 0 127 0" result="hardAlpha"/>
<feMorphology radius="4" operator="erode" in="SourceAlpha" result="effect1_dropShadow_1_692"/>
<feOffset dy="9"/>
<feGaussianBlur stdDeviation="10"/>
<feComposite in2="hardAlpha" operator="out"/>
<feColorMatrix type="matrix" values="0 0 0 0 0 0 0 0 0 0 0 0 0 0 0 0 0 0 0.25 0"/>
<feBlend mode="normal" in2="BackgroundImageFix" result="effect1_dropShadow_1_692"/>
<feBlend mode="normal" in="SourceGraphic" in2="effect1_dropShadow_1_692" result="shape"/>
</filter>
<filter id="filter3_d_1_692" x="208" y="0" width="86" height="86" filterUnits="userSpaceOnUse" color-interpolation-filters="sRGB">
<feFlood flood-opacity="0" result="BackgroundImageFix"/>
<feColorMatrix in="SourceAlpha" type="matrix" values="0 0 0 0 0 0 0 0 0 0 0 0 0 0 0 0 0 0 127 0" result="hardAlpha"/>
<feMorphology radius="4" operator="erode" in="SourceAlpha" result="effect1_dropShadow_1_692"/>
<feOffset dy="9"/>
<feGaussianBlur stdDeviation="10"/>
<feComposite in2="hardAlpha" operator="out"/>
<feColorMatrix type="matrix" values="0 0 0 0 0 0 0 0 0 0 0 0 0 0 0 0 0 0 0.25 0"/>
<feBlend mode="normal" in2="BackgroundImageFix" result="effect1_dropShadow_1_692"/>
<feBlend mode="normal" in="SourceGraphic" in2="effect1_dropShadow_1_692" result="shape"/>
</filter>
</defs>
</svg>
