<svg width="14" height="15" viewBox="0 0 14 15" fill="none" xmlns="http://www.w3.org/2000/svg">
<path fill-rule="evenodd" clip-rule="evenodd" d="M3.45832 4.24992C3.45832 2.29391 5.04398 0.708252 6.99999 0.708252C8.956 0.708252 10.5417 2.29391 10.5417 4.24992C10.5417 6.20593 8.956 7.79158 6.99999 7.79158C5.04398 7.79158 3.45832 6.20593 3.45832 4.24992ZM6.99999 1.95825C5.73434 1.95825 4.70832 2.98427 4.70832 4.24992C4.70832 5.51557 5.73434 6.54158 6.99999 6.54158C8.26564 6.54158 9.29166 5.51557 9.29166 4.24992C9.29166 2.98427 8.26564 1.95825 6.99999 1.95825Z" fill="black"/>
<path fill-rule="evenodd" clip-rule="evenodd" d="M3.66666 10.2916C2.63112 10.2916 1.79166 11.1311 1.79166 12.1666V13.1568C1.79166 13.1719 1.80258 13.1848 1.81746 13.1872C5.24976 13.7476 8.75022 13.7476 12.1825 13.1872C12.1974 13.1848 12.2083 13.1719 12.2083 13.1568V12.1666C12.2083 11.1311 11.3689 10.2916 10.3333 10.2916H10.0493C10.0273 10.2916 10.0055 10.2951 9.9846 10.3019L9.26334 10.5374C7.79265 11.0176 6.20733 11.0176 4.73664 10.5374L4.01538 10.3019C3.9945 10.2951 3.97268 10.2916 3.95071 10.2916H3.66666ZM0.541656 12.1666C0.541656 10.4407 1.94077 9.04158 3.66666 9.04158H3.95071C4.10446 9.04158 4.25723 9.0659 4.40338 9.11362L5.12465 9.34913C6.34322 9.74703 7.65676 9.74703 8.87533 9.34913L9.5966 9.11362C9.74275 9.0659 9.89552 9.04158 10.0493 9.04158H10.3333C12.0592 9.04158 13.4583 10.4407 13.4583 12.1666V13.1568C13.4583 13.7845 13.0034 14.3197 12.3839 14.4208C8.81824 15.003 5.18174 15.003 1.61605 14.4208C0.99656 14.3197 0.541656 13.7845 0.541656 13.1568V12.1666Z" fill="black"/>
</svg>
