<svg width="32" height="42" viewBox="0 0 32 42" fill="none" xmlns="http://www.w3.org/2000/svg">
<path fill-rule="evenodd" clip-rule="evenodd" d="M20.3621 0.812408C20.9384 1.05778 21.3125 1.62364 21.3125 2.25004V16.8296H29.5C30.0557 16.8296 30.5695 17.1247 30.8495 17.6046C31.1296 18.0845 31.1337 18.677 30.8604 19.1608L29.8352 20.975C25.9475 27.8556 20.9894 34.0735 15.1471 39.3954L13.4897 40.9051C13.0323 41.3218 12.3721 41.4293 11.8061 41.1793C11.2401 40.9293 10.875 40.3688 10.875 39.75V25.2941H2.41669C1.55374 25.2941 0.854187 24.5945 0.854187 23.7316C0.854187 23.4521 0.927573 23.1897 1.05613 22.9627C4.72027 16.1889 9.41148 10.0233 14.963 4.68534L18.667 1.12374C19.1186 0.689573 19.7857 0.567033 20.3621 0.812408ZM5.09289 22.1691H12.4375C13.3005 22.1691 14 22.8686 14 23.7316V36.197C19.0388 31.4354 23.3577 25.9639 26.8196 19.9546H19.75C18.8871 19.9546 18.1875 19.255 18.1875 18.3921V5.92007L17.1289 6.93795C12.4398 11.4467 8.3913 16.5717 5.09289 22.1691Z" fill="#10BB87"/>
</svg>
