<svg width="50" height="50" viewBox="0 0 50 50" fill="none" xmlns="http://www.w3.org/2000/svg">
<path fill-rule="evenodd" clip-rule="evenodd" d="M40.3012 29.0546C39.6616 36.815 33.1766 42.7874 25.3899 42.7874L24.6101 42.7874C16.8234 42.7874 10.3384 36.815 9.69873 29.0546C9.35511 24.8859 10.6428 20.7465 13.2906 17.5083L21.9436 6.92589C23.5233 4.99401 26.4767 4.99399 28.0563 6.92588L36.7094 17.5083C39.3572 20.7465 40.6449 24.8859 40.3012 29.0546ZM25.3899 40.0795C31.7672 40.0795 37.0785 35.188 37.6024 28.8322C37.8884 25.3626 36.8167 21.9175 34.613 19.2225L25.96 8.64005C25.4638 8.03326 24.5362 8.03326 24.04 8.64005L15.387 19.2225C13.1833 21.9175 12.1116 25.3626 12.3976 28.8322C12.9215 35.188 18.2327 40.0795 24.6101 40.0795L25.3899 40.0795Z" fill="#10BB87"/>
<path d="M17.7787 26.9909C17.0309 26.9909 16.4135 27.601 16.5302 28.3397C17.1077 31.9955 19.9954 34.8831 23.6512 35.4607C24.3898 35.5774 25 34.96 25 34.2122C25 33.4644 24.3855 32.8743 23.6574 32.7039C21.4952 32.1977 19.7932 30.4957 19.287 28.3334C19.1166 27.6053 18.5265 26.9909 17.7787 26.9909Z" fill="#10BB87"/>
<path fill-rule="evenodd" clip-rule="evenodd" d="M40.5088 29.0717C39.8603 36.9402 33.285 42.9958 25.3898 42.9958L24.6101 42.9958C16.7149 42.9958 10.1397 36.9402 9.49107 29.0717C9.14302 24.8492 10.4473 20.6564 13.1293 17.3764L21.7823 6.79401C23.4453 4.76019 26.5546 4.76018 28.2176 6.79401L36.8706 17.3764C39.5526 20.6564 40.8569 24.8492 40.5088 29.0717ZM25.3898 42.5791C33.0681 42.5791 39.4628 36.6898 40.0936 29.0375C40.4328 24.9226 39.1617 20.8366 36.5481 17.6402L27.895 7.05776C26.3987 5.22782 23.6012 5.22783 22.1049 7.05776L13.4518 17.6402C10.8382 20.8366 9.56715 24.9226 9.90633 29.0375C10.5371 36.6898 16.9318 42.5791 24.6101 42.5791L25.3898 42.5791ZM25.3898 39.8711C31.6588 39.8711 36.8798 35.0628 37.3947 28.8151C37.6763 25.3993 36.6212 22.0076 34.4517 19.3543L25.7987 8.77193C25.3859 8.26708 24.6141 8.26707 24.2012 8.77193L15.5482 19.3543C13.3787 22.0076 12.3236 25.3993 12.6052 28.8151C13.1202 35.0628 18.3411 39.8711 24.6101 39.8711L25.3898 39.8711ZM37.81 28.8493C37.2772 35.3132 31.8756 40.2878 25.3898 40.2878L24.6101 40.2878C18.1243 40.2878 12.7227 35.3132 12.1899 28.8493C11.8995 25.326 12.9878 21.8274 15.2257 19.0906L23.8787 8.50818C24.4582 7.79944 25.5417 7.79944 26.1212 8.50817L34.7742 19.0906C37.0121 21.8274 38.1004 25.326 37.81 28.8493ZM25.2083 34.2122C25.2083 35.0644 24.506 35.8067 23.6187 35.6665C19.8736 35.0748 16.916 32.1172 16.3244 28.3722C16.1842 27.4848 16.9265 26.7825 17.7787 26.7825C18.6502 26.7825 19.3041 27.4927 19.4898 28.286C19.9779 30.3711 21.6197 32.0129 23.7049 32.501C24.4982 32.6867 25.2083 33.3407 25.2083 34.2122ZM23.6837 35.2549C24.2736 35.3481 24.7916 34.8556 24.7916 34.2122C24.7916 33.5881 24.2728 33.0619 23.6099 32.9067C21.3706 32.3825 19.6083 30.6203 19.0841 28.3809C18.9289 27.718 18.4027 27.1992 17.7787 27.1992C17.1353 27.1992 16.6427 27.7173 16.7359 28.3072C17.2994 31.8738 20.1171 34.6914 23.6837 35.2549Z" fill="#10BB87"/>
</svg>
