<svg width="38" height="36" viewBox="0 0 38 36" fill="none" xmlns="http://www.w3.org/2000/svg">
<path fill-rule="evenodd" clip-rule="evenodd" d="M29.9148 0.0198975H31.5C34.6641 0.0198975 37.2292 2.58493 37.2292 5.74906V9.91573C37.2292 11.5911 36.0992 13.0025 34.5598 13.4293C34.8599 17.2347 34.6861 27.2923 34.0406 31.0591C33.6552 33.3084 31.8284 35.0315 29.5604 35.285L27.6553 35.4979C21.903 36.1408 16.097 36.1408 10.3448 35.4979L8.43961 35.285C6.17166 35.0315 4.34485 33.3084 3.95942 31.0591C3.31394 27.2923 3.1401 17.2347 3.44024 13.4293C1.90084 13.0025 0.770844 11.5911 0.770844 9.91573V5.74906C0.770844 2.58493 3.33588 0.0198975 6.50001 0.0198975H8.08524H13.7917H24.2083H29.9148ZM3.89584 5.74906C3.89584 4.31082 5.06177 3.1449 6.50001 3.1449H17.4375H20.5625H31.5C32.9383 3.1449 34.1042 4.31082 34.1042 5.74906V9.91573C34.1042 10.2034 33.871 10.4366 33.5833 10.4366H20.5625H17.4375H4.41668C4.12903 10.4366 3.89584 10.2034 3.89584 9.91573V5.74906ZM20.5625 13.5616H31.4354C31.7277 17.1461 31.5686 26.9826 30.9605 30.5313C30.8102 31.4085 30.0978 32.0805 29.2133 32.1793L27.3082 32.3923C25.0658 32.6429 22.815 32.7917 20.5625 32.8388V13.5616ZM17.4375 13.5616V32.8388C15.1851 32.7917 12.9342 32.6429 10.6919 32.3923L8.78671 32.1793C7.90225 32.0805 7.18984 31.4085 7.03952 30.5313C6.43142 26.9826 6.27238 17.1461 6.56466 13.5616H17.4375Z" fill="#10BB87"/>
</svg>
