<svg width="20" height="20" viewBox="0 0 20 20" fill="none" xmlns="http://www.w3.org/2000/svg">
<path fill-rule="evenodd" clip-rule="evenodd" d="M6.45835 6.24992C6.45835 4.29391 8.04401 2.70825 10 2.70825C11.956 2.70825 13.5417 4.29391 13.5417 6.24992C13.5417 8.20593 11.956 9.79158 10 9.79158C8.04401 9.79158 6.45835 8.20593 6.45835 6.24992ZM10 3.95825C8.73437 3.95825 7.70835 4.98427 7.70835 6.24992C7.70835 7.51557 8.73437 8.54158 10 8.54158C11.2657 8.54158 12.2917 7.51557 12.2917 6.24992C12.2917 4.98427 11.2657 3.95825 10 3.95825Z" fill="#487B6C"/>
<path fill-rule="evenodd" clip-rule="evenodd" d="M6.66669 12.2916C5.63115 12.2916 4.79169 13.1311 4.79169 14.1666V15.1568C4.79169 15.1719 4.80261 15.1848 4.8175 15.1872C8.24979 15.7476 11.7503 15.7476 15.1825 15.1872C15.1974 15.1848 15.2084 15.1719 15.2084 15.1568V14.1666C15.2084 13.1311 14.3689 12.2916 13.3334 12.2916H13.0493C13.0273 12.2916 13.0055 12.2951 12.9846 12.3019L12.2634 12.5374C10.7927 13.0176 9.20736 13.0176 7.73667 12.5374L7.01541 12.3019C6.99453 12.2951 6.97271 12.2916 6.95074 12.2916H6.66669ZM3.54169 14.1666C3.54169 12.4407 4.9408 11.0416 6.66669 11.0416H6.95074C7.10449 11.0416 7.25726 11.0659 7.40341 11.1136L8.12468 11.3491C9.34325 11.747 10.6568 11.747 11.8754 11.3491L12.5966 11.1136C12.7428 11.0659 12.8956 11.0416 13.0493 11.0416H13.3334C15.0592 11.0416 16.4584 12.4407 16.4584 14.1666V15.1568C16.4584 15.7845 16.0035 16.3197 15.384 16.4208C11.8183 17.003 8.18177 17.003 4.61608 16.4208C3.99659 16.3197 3.54169 15.7845 3.54169 15.1568V14.1666Z" fill="#487B6C"/>
</svg>
