<svg width="12" height="12" viewBox="0 0 12 12" fill="none" xmlns="http://www.w3.org/2000/svg">
<path d="M4.31307 2.35351C4.50833 2.54877 4.82492 2.54877 5.02018 2.35351L5.49996 1.87373V5.49996H1.87373L2.35351 5.02018C2.54877 4.82492 2.54877 4.50834 2.35351 4.31307C2.15825 4.11781 1.84167 4.11781 1.64641 4.31307L0.313073 5.64641C0.11781 5.84167 0.11781 6.15825 0.313073 6.35351L1.64641 7.68685C1.84167 7.88211 2.15825 7.88211 2.35351 7.68685C2.54877 7.49158 2.54877 7.175 2.35351 6.97974L1.87373 6.49996H5.49996L5.49996 10.1262L5.02018 9.64641C4.82492 9.45114 4.50833 9.45114 4.31307 9.64641C4.11781 9.84167 4.11781 10.1583 4.31307 10.3535L5.64641 11.6868C5.84167 11.8821 6.15825 11.8821 6.35351 11.6868L7.68685 10.3535C7.88211 10.1583 7.88211 9.84167 7.68685 9.64641C7.49158 9.45114 7.175 9.45114 6.97974 9.64641L6.49996 10.1262L6.49996 6.49996L10.1262 6.49996L9.64641 6.97974C9.45114 7.175 9.45114 7.49158 9.64641 7.68685C9.84167 7.88211 10.1583 7.88211 10.3535 7.68685L11.6868 6.35351C11.8821 6.15825 11.8821 5.84167 11.6868 5.64641L10.3535 4.31307C10.1583 4.11781 9.84167 4.11781 9.64641 4.31307C9.45114 4.50833 9.45114 4.82492 9.64641 5.02018L10.1262 5.49996L6.49996 5.49996V1.87373L6.97974 2.35351C7.175 2.54877 7.49158 2.54877 7.68685 2.35351C7.88211 2.15825 7.88211 1.84167 7.68685 1.64641L6.35351 0.313073C6.15825 0.11781 5.84167 0.11781 5.64641 0.313073L4.31307 1.64641C4.11781 1.84167 4.11781 2.15825 4.31307 2.35351Z" fill="white"/>
</svg>
