<svg width="20" height="16" viewBox="0 0 20 16" fill="none" xmlns="http://www.w3.org/2000/svg">
<path d="M12.0001 5C12.0001 4.17157 12.6716 3.5 13.5001 3.5C14.3285 3.5 15.0001 4.17157 15.0001 5C15.0001 5.82843 14.3285 6.5 13.5001 6.5C12.6716 6.5 12.0001 5.82843 12.0001 5Z" fill="#B3B3B3"/>
<path fill-rule="evenodd" clip-rule="evenodd" d="M5.26759 0.658553C8.41664 0.384812 11.5835 0.384812 14.7325 0.658552L16.2428 0.789834C17.6878 0.915451 18.8585 2.0151 19.0742 3.44949C19.5279 6.4662 19.5279 9.53379 19.0742 12.5505C18.8585 13.9849 17.6878 15.0845 16.2428 15.2102L14.7325 15.3414C11.5835 15.6152 8.41664 15.6152 5.26759 15.3414L3.75736 15.2102C2.31229 15.0845 1.14162 13.9849 0.925924 12.5505C0.472283 9.53379 0.472283 6.4662 0.925924 3.44949C1.14162 2.0151 2.31229 0.915451 3.75736 0.789834L5.26759 0.658553ZM14.6026 2.15292C11.54 1.88669 8.4601 1.88669 5.3975 2.15292L3.88726 2.2842C3.13293 2.34977 2.52184 2.92379 2.40925 3.67254C2.15171 5.38516 2.04792 7.11502 2.09786 8.84153L5.96973 4.96967C6.11579 4.82361 6.31562 4.74426 6.52209 4.75032C6.72856 4.75639 6.92338 4.84734 7.06061 5.00173L10.7321 9.1321L13.2629 8.28849C13.5459 8.19414 13.8579 8.27652 14.0575 8.49828L17.5767 12.4084C17.582 12.3817 17.5868 12.3547 17.5909 12.3274C18.0223 9.45861 18.0223 6.54138 17.5909 3.67254C17.4783 2.92379 16.8672 2.34977 16.1129 2.2842L14.6026 2.15292ZM16.6202 13.588L13.2712 9.86685L10.7372 10.7115C10.4526 10.8064 10.1388 10.7225 9.9395 10.4983L6.46794 6.59277L2.22426 10.8365C2.27304 11.3346 2.3347 11.8317 2.40925 12.3274C2.52184 13.0762 3.13293 13.6502 3.88726 13.7158L5.3975 13.8471C8.4601 14.1133 11.54 14.1133 14.6026 13.8471L16.1129 13.7158C16.2916 13.7003 16.4623 13.6562 16.6202 13.588Z" fill="#B3B3B3"/>
</svg>
