<svg width="20" height="19" viewBox="0 0 20 19" fill="none" xmlns="http://www.w3.org/2000/svg">
<path fill-rule="evenodd" clip-rule="evenodd" d="M11.1546 0.360262C10.4835 0.00999263 9.5741 0.00458798 8.89762 0.353955C6.30466 1.6931 3.95279 3.22853 1.89182 4.93154C1.57311 5.19489 1.34693 5.57758 1.35079 6.02802C1.35463 6.47662 1.58541 6.85419 1.90218 7.1132C3.94604 8.78438 6.29985 10.3212 8.84534 11.6497C9.51646 12 10.4258 12.0054 11.1023 11.656C13.6953 10.3169 16.0472 8.78147 18.1081 7.07846C18.4268 6.8151 18.653 6.43242 18.6492 5.98197C18.6453 5.53338 18.4145 5.1558 18.0978 4.89679C16.0539 3.22562 13.7001 1.6888 11.1546 0.360262ZM9.58593 1.68671C9.82559 1.56294 10.2193 1.56411 10.4606 1.69004C12.8899 2.95796 15.1283 4.41666 17.0675 5.99223C15.1167 7.59315 12.885 9.04714 10.414 10.3233C10.1744 10.4471 9.78067 10.4459 9.53937 10.32C7.11004 9.05204 4.87163 7.59333 2.9324 6.01777C4.88321 4.41684 7.11496 2.96285 9.58593 1.68671Z" fill="#B3B3B3"/>
<path d="M19.197 9.69803C19.4164 10.0494 19.3094 10.512 18.958 10.7314L12.8508 14.5443C12.022 15.0617 10.9938 15.3009 9.99989 15.301C9.00595 15.301 7.9777 15.0619 7.14884 14.5446L1.10851 10.7749C0.757113 10.5556 0.650033 10.093 0.869337 9.74156C1.08864 9.39016 1.55128 9.28308 1.90268 9.50239L7.94301 13.2721C8.48716 13.6117 9.22635 13.801 9.9998 13.801C10.7732 13.8009 11.5124 13.6116 12.0564 13.2719L18.1636 9.45902C18.515 9.23966 18.9776 9.34667 19.197 9.69803Z" fill="#B3B3B3"/>
<path d="M19.197 13.4527C19.4164 13.804 19.3094 14.2667 18.9581 14.4861L13.6692 17.7889C12.6115 18.4494 11.2886 18.7602 9.99984 18.7602C8.71113 18.7603 7.38808 18.4497 6.3303 17.7894L1.10843 14.5296C0.757063 14.3102 0.650038 13.8476 0.869385 13.4962C1.08873 13.1448 1.55139 13.0378 1.90276 13.2572L7.12462 16.517C7.89764 16.9995 8.93156 17.2603 9.99976 17.2602C11.068 17.2602 12.1018 16.9993 12.8746 16.5167L18.1635 13.2138C18.5149 12.9944 18.9776 13.1013 19.197 13.4527Z" fill="#B3B3B3"/>
</svg>
