<svg width="24" height="24" viewBox="0 0 24 24" fill="none" xmlns="http://www.w3.org/2000/svg">
<path fill-rule="evenodd" clip-rule="evenodd" d="M19.4226 6.40048C15.4241 6.02894 11.3971 6.02894 7.39866 6.40048C7.32358 6.40746 7.29513 6.45214 7.29129 6.46339C6.90274 7.60068 6.90274 8.84195 7.29129 9.97924C7.29513 9.99049 7.32358 10.0352 7.39866 10.0421C11.3971 10.4137 15.4241 10.4137 19.4226 10.0421C19.4976 10.0352 19.5261 9.99048 19.5299 9.97924C19.9185 8.84194 19.9185 7.60068 19.5299 6.46339C19.5261 6.45215 19.4976 6.40746 19.4226 6.40048ZM19.5151 5.40477C15.4551 5.02751 11.3661 5.02751 7.30614 5.40477C6.8586 5.44635 6.48245 5.73774 6.34499 6.14009C5.88484 7.48697 5.88484 8.95566 6.34499 10.3025C6.48245 10.7049 6.8586 10.9963 7.30614 11.0379C11.3661 11.4151 15.4551 11.4151 19.5151 11.0379C19.9626 10.9963 20.3388 10.7049 20.4762 10.3025C20.9364 8.95566 20.9364 7.48697 20.4762 6.14009C20.3388 5.73774 19.9626 5.44635 19.5151 5.40477Z" fill="#B3B3B3"/>
<path fill-rule="evenodd" clip-rule="evenodd" d="M19.4966 5.6039C15.449 5.22779 11.3723 5.22779 7.32469 5.6039C6.95164 5.63856 6.64504 5.88061 6.5343 6.20474C6.08847 7.5097 6.08847 8.9329 6.5343 10.2379C6.64504 10.562 6.95164 10.804 7.32469 10.8387C11.3723 11.2148 15.449 11.2148 19.4966 10.8387C19.8697 10.804 20.1763 10.562 20.287 10.2379C20.7329 8.9329 20.7329 7.5097 20.287 6.20474C20.1763 5.88061 19.8697 5.63856 19.4966 5.6039ZM7.28769 5.20561C11.36 4.82721 15.4614 4.82721 19.5336 5.20561C20.0557 5.25412 20.5014 5.59485 20.6655 6.07542C21.14 7.46422 21.14 8.97839 20.6655 10.3672C20.5014 10.8478 20.0557 11.1885 19.5336 11.237C15.4614 11.6154 11.36 11.6154 7.28769 11.237C6.76565 11.1885 6.31997 10.8478 6.15578 10.3672C5.68131 8.97839 5.68131 7.46422 6.15578 6.07542C6.31997 5.59485 6.76565 5.25412 7.28769 5.20561ZM7.45796 6.59584C7.11392 7.64998 7.11392 8.79262 7.45796 9.84677C11.4171 10.2121 15.4042 10.2121 19.3634 9.84677C19.7074 8.79262 19.7074 7.64998 19.3634 6.59584C15.4042 6.23047 11.4171 6.23047 7.45796 6.59584ZM7.38021 6.20132C11.3909 5.82864 15.4304 5.82864 19.4411 6.20132C19.5955 6.21567 19.6902 6.31379 19.7192 6.39872C20.1221 7.57793 20.1221 8.86467 19.7192 10.0439L19.53 9.97923L19.7192 10.0439C19.6902 10.1288 19.5955 10.2269 19.4411 10.2413C15.4304 10.614 11.3909 10.614 7.38021 10.2413C7.22579 10.2269 7.1311 10.1288 7.10208 10.0439C6.69921 8.86468 6.69921 7.57793 7.10208 6.39872C7.1311 6.31379 7.22579 6.21567 7.38021 6.20132Z" fill="#B3B3B3"/>
<path fill-rule="evenodd" clip-rule="evenodd" d="M7.17884 13.9126C6.94022 15.12 6.94023 16.4421 7.17884 17.6496C9.27612 17.9576 11.3852 17.9576 13.4825 17.6496C13.7211 16.4421 13.7211 15.12 13.4825 13.9126C11.3852 13.6046 9.27611 13.6046 7.17884 13.9126ZM13.8981 12.9645C11.5255 12.5873 9.13588 12.5873 6.76325 12.9645C6.50171 13.0061 6.28189 13.2975 6.20156 13.6998C5.93265 15.0467 5.93265 16.5154 6.20156 17.8623C6.28189 18.2646 6.50171 18.556 6.76325 18.5976C9.13587 18.9749 11.5255 18.9749 13.8981 18.5976C14.1596 18.556 14.3795 18.2646 14.4598 17.8623C14.7287 16.5154 14.7287 15.0467 14.4598 13.6998C14.3795 13.2975 14.1596 13.0061 13.8981 12.9645Z" fill="#B3B3B3"/>
<path fill-rule="evenodd" clip-rule="evenodd" d="M13.8667 13.162C11.5149 12.7881 9.14652 12.7881 6.79471 13.162C6.72886 13.1725 6.65005 13.2176 6.57364 13.318C6.49773 13.4178 6.43316 13.5616 6.39774 13.739C6.13399 15.06 6.13399 16.5021 6.39774 17.8231C6.43316 18.0005 6.49773 18.1444 6.57364 18.2441C6.65005 18.3445 6.72886 18.3896 6.79471 18.4001C9.14652 18.774 11.5149 18.774 13.8667 18.4001C13.9326 18.3896 14.0114 18.3445 14.0878 18.2441C14.1637 18.1444 14.2283 18.0005 14.2637 17.8231C14.5275 16.5021 14.5275 15.06 14.2637 13.739C14.2283 13.5616 14.1637 13.4178 14.0878 13.318C14.0114 13.2176 13.9326 13.1725 13.8667 13.162ZM6.73189 12.767C9.12532 12.3864 11.5361 12.3864 13.9296 12.767C14.1252 12.7981 14.2871 12.9194 14.4061 13.0758C14.5255 13.2327 14.6111 13.4357 14.656 13.6607C14.93 15.0334 14.93 16.5287 14.656 17.9014C14.6111 18.1264 14.5255 18.3294 14.4061 18.4864C14.2871 18.6427 14.1252 18.764 13.9296 18.7951C11.5361 19.1757 9.12532 19.1757 6.73189 18.7951C6.5362 18.764 6.37433 18.6427 6.25536 18.4864C6.1359 18.3294 6.05039 18.1264 6.00548 17.9014C5.73141 16.5287 5.73141 15.0334 6.00548 13.6607C6.05039 13.4357 6.1359 13.2327 6.25536 13.0758C6.37433 12.9194 6.5362 12.7981 6.73189 12.767ZM7.34882 14.0902C7.1503 15.1877 7.1503 16.3744 7.34882 17.4719C9.33341 17.7501 11.328 17.7501 13.3126 17.4719C13.5112 16.3744 13.5111 15.1877 13.3126 14.0902C11.328 13.812 9.33341 13.812 7.34882 14.0902ZM7.14983 13.7147C9.26637 13.4039 11.3951 13.4039 13.5116 13.7147L13.6514 13.7352L13.6788 13.8738C13.9224 15.1068 13.9224 16.4553 13.6788 17.6883L13.6514 17.8269L13.5116 17.8474C11.3951 18.1582 9.26637 18.1582 7.14983 17.8474L7.01008 17.8269L6.98269 17.6883C6.73901 16.4553 6.73901 15.1068 6.98269 13.8738L7.01007 13.7352L7.14983 13.7147Z" fill="#B3B3B3"/>
<path d="M3.14844 3.49802C3.14844 3.22297 3.37141 3 3.64645 3C3.9215 3 4.14447 3.22297 4.14447 3.49802V20.502C4.14447 20.777 3.9215 21 3.64645 21C3.37141 21 3.14844 20.777 3.14844 20.502V3.49802Z" fill="#B3B3B3"/>
<path fill-rule="evenodd" clip-rule="evenodd" d="M2.94849 3.498C2.94849 3.1125 3.261 2.79999 3.6465 2.79999C4.03201 2.79999 4.34452 3.1125 4.34452 3.498V20.502C4.34452 20.8875 4.03201 21.2 3.6465 21.2C3.261 21.2 2.94849 20.8875 2.94849 20.502V3.498ZM3.6465 3.19999C3.48191 3.19999 3.34849 3.33341 3.34849 3.498V20.502C3.34849 20.6666 3.48191 20.8 3.6465 20.8C3.81109 20.8 3.94452 20.6666 3.94452 20.502V3.498C3.94452 3.33341 3.81109 3.19999 3.6465 3.19999Z" fill="#B3B3B3"/>
</svg>
