<svg width="17" height="16" viewBox="0 0 17 16" fill="none" xmlns="http://www.w3.org/2000/svg">
<path fill-rule="evenodd" clip-rule="evenodd" d="M14.4226 2.40048C10.4241 2.02894 6.39708 2.02894 2.39866 2.40048C2.32358 2.40746 2.29513 2.45214 2.29129 2.46339C1.90274 3.60068 1.90274 4.84195 2.29129 5.97924C2.29513 5.99049 2.32358 6.03517 2.39866 6.04215C6.39708 6.41369 10.4241 6.41369 14.4226 6.04215C14.4976 6.03517 14.5261 5.99048 14.5299 5.97924C14.9185 4.84194 14.9185 3.60068 14.5299 2.46339C14.5261 2.45215 14.4976 2.40746 14.4226 2.40048ZM14.5151 1.40477C10.4551 1.02751 6.36611 1.02751 2.30614 1.40477C1.8586 1.44635 1.48245 1.73774 1.34499 2.14009C0.884839 3.48697 0.884839 4.95566 1.34499 6.30254C1.48245 6.70488 1.8586 6.99627 2.30614 7.03786C6.3661 7.41512 10.4551 7.41512 14.5151 7.03786C14.9626 6.99627 15.3388 6.70489 15.4762 6.30254C15.9364 4.95566 15.9364 3.48697 15.4762 2.14009C15.3388 1.73774 14.9626 1.44635 14.5151 1.40477Z" fill="#B3B3B3"/>
<path fill-rule="evenodd" clip-rule="evenodd" d="M14.4966 1.6039C10.449 1.22779 6.37235 1.22779 2.32469 1.6039C1.95164 1.63856 1.64504 1.88061 1.5343 2.20474C1.08847 3.5097 1.08847 4.9329 1.5343 6.23786C1.64504 6.56199 1.95164 6.80404 2.32469 6.83871C6.37235 7.21482 10.449 7.21482 14.4966 6.83871C14.8697 6.80404 15.1763 6.56199 15.287 6.23786C15.7329 4.9329 15.7329 3.5097 15.287 2.20474C15.1763 1.88061 14.8697 1.63856 14.4966 1.6039ZM2.28769 1.20561C6.35996 0.827214 10.4614 0.827214 14.5336 1.20561C15.0557 1.25412 15.5014 1.59485 15.6655 2.07542C16.14 3.46422 16.14 4.97839 15.6655 6.36718C15.5014 6.84775 15.0557 7.18848 14.5336 7.23699C10.4614 7.61539 6.35996 7.61539 2.28769 7.23699C1.76565 7.18848 1.31997 6.84775 1.15578 6.36718C0.681308 4.97839 0.681308 3.46422 1.15578 2.07542C1.31997 1.59485 1.76565 1.25412 2.28769 1.20561ZM2.45796 2.59584C2.11392 3.64998 2.11392 4.79262 2.45796 5.84677C6.41709 6.21213 10.4042 6.21213 14.3634 5.84677C14.7074 4.79262 14.7074 3.64998 14.3634 2.59584C10.4042 2.23047 6.4171 2.23047 2.45796 2.59584ZM2.38021 2.20132C6.39093 1.82864 10.4304 1.82864 14.4411 2.20132C14.5955 2.21567 14.6902 2.31379 14.7192 2.39872C15.1221 3.57793 15.1221 4.86467 14.7192 6.04388L14.53 5.97923L14.7192 6.04389C14.6902 6.12881 14.5955 6.22693 14.4411 6.24128C10.4304 6.61396 6.39093 6.61396 2.38021 6.24128C2.22579 6.22693 2.1311 6.12881 2.10208 6.04388C1.69921 4.86468 1.69921 3.57793 2.10208 2.39872C2.1311 2.31379 2.22579 2.21567 2.38021 2.20132Z" fill="#B3B3B3"/>
<path fill-rule="evenodd" clip-rule="evenodd" d="M5.17884 9.91257C4.94022 11.12 4.94023 12.4421 5.17884 13.6496C7.27612 13.9576 9.38524 13.9576 11.4825 13.6496C11.7211 12.4421 11.7211 11.12 11.4825 9.91257C9.38523 9.60458 7.27611 9.60458 5.17884 9.91257ZM11.8981 8.96452C9.52547 8.58727 7.13588 8.58727 4.76325 8.96452C4.50171 9.00611 4.28189 9.2975 4.20156 9.69985C3.93265 11.0467 3.93265 12.5154 4.20156 13.8623C4.28189 14.2646 4.50171 14.556 4.76325 14.5976C7.13587 14.9749 9.52548 14.9749 11.8981 14.5976C12.1596 14.556 12.3795 14.2646 12.4598 13.8623C12.7287 12.5154 12.7287 11.0467 12.4598 9.69985C12.3795 9.2975 12.1596 9.00611 11.8981 8.96452Z" fill="#B3B3B3"/>
<path fill-rule="evenodd" clip-rule="evenodd" d="M11.8667 9.16203C9.51492 8.78808 7.14652 8.78808 4.79471 9.16203C4.72886 9.1725 4.65005 9.21764 4.57364 9.31802C4.49773 9.41776 4.43316 9.56159 4.39774 9.73899C4.13399 11.06 4.13399 12.5021 4.39774 13.8231C4.43316 14.0005 4.49773 14.1444 4.57364 14.2441C4.65005 14.3445 4.72886 14.3896 4.79471 14.4001C7.14652 14.774 9.51492 14.774 11.8667 14.4001C11.9326 14.3896 12.0114 14.3445 12.0878 14.2441C12.1637 14.1444 12.2283 14.0005 12.2637 13.8231C12.5275 12.5021 12.5275 11.06 12.2637 9.73899C12.2283 9.56159 12.1637 9.41776 12.0878 9.31802C12.0114 9.21764 11.9326 9.1725 11.8667 9.16203ZM4.73189 8.76699C7.12532 8.38643 9.53612 8.38643 11.9296 8.76699C12.1252 8.79811 12.2871 8.91945 12.4061 9.07575C12.5255 9.23269 12.6111 9.43573 12.656 9.66068C12.93 11.0334 12.93 12.5287 12.656 13.9014C12.6111 14.1264 12.5255 14.3294 12.4061 14.4864C12.2871 14.6427 12.1252 14.764 11.9296 14.7951C9.53612 15.1757 7.12532 15.1757 4.73189 14.7951C4.5362 14.764 4.37433 14.6427 4.25536 14.4864C4.1359 14.3294 4.05039 14.1264 4.00548 13.9014C3.73141 12.5287 3.73141 11.0334 4.00548 9.66068C4.05039 9.43573 4.1359 9.23269 4.25536 9.07575C4.37433 8.91945 4.5362 8.79811 4.73189 8.76699ZM5.34882 10.0902C5.1503 11.1877 5.1503 12.3744 5.34882 13.4719C7.33341 13.7501 9.32804 13.7501 11.3126 13.4719C11.5112 12.3744 11.5111 11.1877 11.3126 10.0902C9.32804 9.81202 7.33341 9.81202 5.34882 10.0902ZM5.14983 9.71468C7.26637 9.40386 9.39507 9.40386 11.5116 9.71468L11.6514 9.73521L11.6788 9.87379C11.9224 11.1068 11.9224 12.4553 11.6788 13.6883L11.6514 13.8269L11.5116 13.8474C9.39508 14.1582 7.26637 14.1582 5.14983 13.8474L5.01008 13.8269L4.98269 13.6883C4.73901 12.4553 4.73901 11.1068 4.98269 9.87379L5.01007 9.73521L5.14983 9.71468Z" fill="#B3B3B3"/>
</svg>
