<svg width="24" height="24" viewBox="0 0 24 24" fill="none" xmlns="http://www.w3.org/2000/svg">
<path fill-rule="evenodd" clip-rule="evenodd" d="M16.4227 6.40048C12.4243 6.02894 8.3972 6.02894 4.39879 6.40048C4.3237 6.40746 4.29526 6.45214 4.29141 6.46339C3.90286 7.60068 3.90286 8.84195 4.29141 9.97924C4.29526 9.99049 4.3237 10.0352 4.39879 10.0421C8.3972 10.4137 12.4243 10.4137 16.4227 10.0421C16.4978 10.0352 16.5262 9.99048 16.5301 9.97924C16.9186 8.84194 16.9186 7.60068 16.5301 6.46339C16.5262 6.45215 16.4978 6.40746 16.4227 6.40048ZM16.5152 5.40477C12.4552 5.02751 8.36623 5.02751 4.30626 5.40477C3.85872 5.44635 3.48258 5.73774 3.34512 6.14009C2.88496 7.48697 2.88496 8.95566 3.34512 10.3025C3.48258 10.7049 3.85872 10.9963 4.30626 11.0379C8.36623 11.4151 12.4552 11.4151 16.5152 11.0379C16.9628 10.9963 17.3389 10.7049 17.4764 10.3025C17.9365 8.95566 17.9365 7.48697 17.4764 6.14009C17.3389 5.73774 16.9628 5.44635 16.5152 5.40477Z" fill="#B3B3B3"/>
<path fill-rule="evenodd" clip-rule="evenodd" d="M16.4968 5.6039C12.4491 5.22779 8.37247 5.22779 4.32482 5.6039C3.95176 5.63856 3.64516 5.88061 3.53442 6.20474C3.08859 7.5097 3.08859 8.9329 3.53442 10.2379C3.64516 10.562 3.95176 10.804 4.32482 10.8387C8.37247 11.2148 12.4491 11.2148 16.4968 10.8387C16.8698 10.804 17.1764 10.562 17.2871 10.2379C17.733 8.9329 17.733 7.5097 17.2871 6.20474C17.1764 5.88061 16.8698 5.63856 16.4968 5.6039ZM4.28781 5.20561C8.36008 4.82721 12.4615 4.82721 16.5338 5.20561C17.0558 5.25412 17.5015 5.59485 17.6657 6.07542C18.1401 7.46422 18.1401 8.97839 17.6657 10.3672C17.5015 10.8478 17.0558 11.1885 16.5338 11.237C12.4615 11.6154 8.36008 11.6154 4.28781 11.237C3.76577 11.1885 3.32009 10.8478 3.1559 10.3672C2.68143 8.97839 2.68143 7.46422 3.1559 6.07542C3.32009 5.59485 3.76577 5.25412 4.28781 5.20561ZM4.45808 6.59584C4.11404 7.64998 4.11404 8.79262 4.45808 9.84677C8.41722 10.2121 12.4044 10.2121 16.3635 9.84677C16.7075 8.79262 16.7075 7.64998 16.3635 6.59584C12.4043 6.23047 8.41722 6.23047 4.45808 6.59584ZM4.38033 6.20132C8.39106 5.82864 12.4305 5.82864 16.4412 6.20132C16.5957 6.21567 16.6904 6.31379 16.7194 6.39872C17.1222 7.57793 17.1222 8.86467 16.7194 10.0439L16.5301 9.97923L16.7194 10.0439C16.6904 10.1288 16.5957 10.2269 16.4412 10.2413C12.4305 10.614 8.39105 10.614 4.38033 10.2413C4.22591 10.2269 4.13122 10.1288 4.1022 10.0439C3.69933 8.86468 3.69933 7.57793 4.1022 6.39872C4.13122 6.31379 4.22591 6.21567 4.38033 6.20132Z" fill="#B3B3B3"/>
<path fill-rule="evenodd" clip-rule="evenodd" d="M10.1791 13.9126C9.94047 15.12 9.94047 16.4421 10.1791 17.6496C12.2764 17.9576 14.3855 17.9576 16.4828 17.6496C16.7214 16.4421 16.7214 15.12 16.4827 13.9126C14.3855 13.6046 12.2764 13.6046 10.1791 13.9126ZM16.8983 12.9645C14.5257 12.5873 12.1361 12.5873 9.7635 12.9645C9.50195 13.0061 9.28214 13.2975 9.20181 13.6998C8.93289 15.0467 8.93289 16.5154 9.20181 17.8623C9.28214 18.2646 9.50195 18.556 9.7635 18.5976C12.1361 18.9749 14.5257 18.9749 16.8983 18.5976C17.1599 18.556 17.3797 18.2646 17.46 17.8623C17.7289 16.5154 17.7289 15.0467 17.46 13.6998C17.3797 13.2975 17.1599 13.0061 16.8983 12.9645Z" fill="#B3B3B3"/>
<path fill-rule="evenodd" clip-rule="evenodd" d="M16.8669 13.162C14.515 12.7881 12.1466 12.7881 9.79483 13.162C9.72898 13.1725 9.65017 13.2176 9.57377 13.318C9.49785 13.4178 9.43328 13.5616 9.39786 13.739C9.13411 15.06 9.13411 16.5021 9.39786 17.8231C9.43328 18.0005 9.49785 18.1444 9.57377 18.2441C9.65017 18.3445 9.72898 18.3896 9.79483 18.4001C12.1466 18.774 14.515 18.774 16.8669 18.4001C16.9327 18.3896 17.0115 18.3445 17.0879 18.2441C17.1638 18.1444 17.2284 18.0005 17.2638 17.8231C17.5276 16.5021 17.5276 15.06 17.2638 13.739C17.2284 13.5616 17.1638 13.4178 17.0879 13.318C17.0115 13.2176 16.9327 13.1725 16.8669 13.162ZM9.73202 12.767C12.1254 12.3864 14.5362 12.3864 16.9297 12.767C17.1254 12.7981 17.2872 12.9194 17.4062 13.0758C17.5257 13.2327 17.6112 13.4357 17.6561 13.6607C17.9302 15.0334 17.9302 16.5287 17.6561 17.9014C17.6112 18.1264 17.5257 18.3294 17.4062 18.4864C17.2872 18.6427 17.1254 18.764 16.9297 18.7951C14.5362 19.1757 12.1254 19.1757 9.73202 18.7951C9.53632 18.764 9.37445 18.6427 9.25548 18.4864C9.13602 18.3294 9.05052 18.1264 9.0056 17.9014C8.73153 16.5287 8.73153 15.0334 9.0056 13.6607C9.05052 13.4357 9.13602 13.2327 9.25548 13.0758C9.37445 12.9194 9.53632 12.7981 9.73202 12.767ZM10.3489 14.0902C10.1504 15.1877 10.1504 16.3744 10.3489 17.4719C12.3335 17.7501 14.3282 17.7501 16.3128 17.4719C16.5113 16.3744 16.5113 15.1877 16.3128 14.0902C14.3282 13.812 12.3335 13.812 10.3489 14.0902ZM10.15 13.7147C12.2665 13.4039 14.3952 13.4039 16.5117 13.7147L16.6515 13.7352L16.6789 13.8738C16.9226 15.1068 16.9226 16.4553 16.6789 17.6883L16.6515 17.8269L16.5117 17.8474C14.3952 18.1582 12.2665 18.1582 10.15 17.8474L10.0102 17.8269L9.98281 17.6883C9.73913 16.4553 9.73913 15.1068 9.98281 13.8738L10.0102 13.7352L10.15 13.7147Z" fill="#B3B3B3"/>
<path d="M20.0039 3.49802C20.0039 3.22297 20.2269 3 20.5019 3C20.777 3 20.9999 3.22297 20.9999 3.49802V20.502C20.9999 20.777 20.777 21 20.5019 21C20.2269 21 20.0039 20.777 20.0039 20.502V3.49802Z" fill="#B3B3B3"/>
<path fill-rule="evenodd" clip-rule="evenodd" d="M19.804 3.498C19.804 3.1125 20.1165 2.79999 20.502 2.79999C20.8875 2.79999 21.2 3.1125 21.2 3.498V20.502C21.2 20.8875 20.8875 21.2 20.502 21.2C20.1165 21.2 19.804 20.8875 19.804 20.502V3.498ZM20.502 3.19999C20.3374 3.19999 20.204 3.33341 20.204 3.498V20.502C20.204 20.6666 20.3374 20.8 20.502 20.8C20.6666 20.8 20.8 20.6666 20.8 20.502V3.498C20.8 3.33341 20.6666 3.19999 20.502 3.19999Z" fill="#B3B3B3"/>
</svg>
